<svg width="73" height="73" viewBox="0 0 73 73" fill="none" xmlns="http://www.w3.org/2000/svg">
<g clip-path="url(#clip0_107_72835)">
<path d="M14.2694 54.3576V48.5196L24.1292 54.2277L36.324 42.8113V68.7578L14.2694 54.3576Z" fill="#0093EB"/>
<path d="M2.46875 38.9201L15.3124 27.2441L36.329 40.2175L24.1341 51.6339L2.46875 38.9201Z" fill="#0093EB"/>
<path d="M15.3085 27.2439L0 15.5679L22.0546 3.89209L37.6225 14.2706L15.3085 27.2439Z" fill="#0093EB"/>
<path d="M58.3808 54.487L36.3262 68.7575V42.811L48.9103 53.7086L58.3808 47.7409V54.487Z" fill="#0093EB"/>
<path d="M48.9103 51.1134L36.3262 40.2159L57.4726 26.7236L70.1864 37.6212L48.9103 51.1134Z" fill="#0093EB"/>
<path d="M57.4702 26.725L37.6211 14.2706L53.189 3.89209L72.6489 15.5679L57.4702 26.725Z" fill="#0093EB"/>
</g>
<defs>
<clipPath id="clip0_107_72835">
<rect width="72.6503" height="72.6503" fill="white"/>
</clipPath>
</defs>
</svg>
