<svg width="679" height="174" viewBox="0 0 679 174" fill="none" xmlns="http://www.w3.org/2000/svg">
<path d="M454.195 100.906C453.534 100.921 452.866 100.932 452.218 100.955C451.798 100.969 451.617 100.929 451.336 100.908C451.242 100.9 451.141 100.886 451.055 100.887C450.4 100.903 449.746 100.92 449.091 100.938C448.892 100.974 448.766 101.023 448.459 101.041C448.159 101.058 447.805 101.058 447.471 101.067C447.03 101.077 446.589 101.088 446.149 101.098C445.928 101.103 445.748 101.12 445.675 101.154C445.662 101.16 445.809 101.173 445.89 101.182C446.157 101.209 446.419 101.24 446.713 101.261C446.994 101.282 447.341 101.248 447.642 101.273C448.318 101.331 448.324 101.33 448.839 101.319C449.279 101.308 449.72 101.296 450.161 101.288C450.248 101.287 450.348 101.3 450.442 101.308C450.723 101.328 450.904 101.374 451.318 101.356C451.632 101.342 451.979 101.339 452.306 101.331C452.581 101.357 452.835 101.388 453.129 101.409C453.404 101.429 453.484 101.445 453.338 101.472C453.205 101.497 453.018 101.507 452.771 101.509C452.55 101.511 452.33 101.519 452.11 101.524C451.996 101.527 451.889 101.529 451.782 101.532C451.362 101.542 451.362 101.542 450.592 101.484C450.291 101.461 449.951 101.494 449.663 101.472C449.469 101.457 449.302 101.435 449.115 101.419C449.034 101.413 448.907 101.412 448.807 101.414C448.473 101.421 448.139 101.426 447.819 101.438C447.592 101.447 447.459 101.473 447.486 101.499C447.493 101.509 447.654 101.524 447.747 101.525C447.961 101.527 448.188 101.513 448.395 101.52C448.596 101.526 448.803 101.544 448.95 101.564C449.252 101.607 449.592 101.568 449.879 101.579C450.18 101.591 450.428 101.628 450.716 101.65C450.789 101.655 450.929 101.646 451.043 101.643C451.37 101.636 451.698 101.63 452.025 101.623C452.299 101.65 452.594 101.674 452.841 101.704C453.29 101.759 453.772 101.78 454.352 101.753C454.679 101.738 455 101.743 455.261 101.779C455.529 101.816 455.837 101.812 456.177 101.804C456.491 101.796 456.811 101.775 457.132 101.801C457.828 101.858 457.835 101.861 458.656 101.837C458.903 101.831 459.09 101.829 459.278 101.85C459.452 101.869 459.639 101.886 459.82 101.904C460.147 101.897 460.481 101.89 460.808 101.882C461.229 101.872 461.463 101.885 461.564 101.936C461.625 101.968 461.652 101.997 461.8 102.018C461.974 102.044 462.161 102.043 462.415 102.035C462.655 102.028 462.829 102.018 462.928 101.984C462.968 101.97 463.048 101.957 463.121 101.946C463.181 101.938 463.274 101.924 463.328 101.926C463.428 101.93 463.562 101.94 463.596 101.952C463.925 102.064 463.925 102.065 464.26 102.097C464.628 102.133 465.01 102.165 465.344 102.205C465.646 102.241 465.946 102.225 466.273 102.225C466.521 102.225 466.681 102.249 466.662 102.273C466.649 102.287 466.556 102.307 466.476 102.309C465.821 102.328 465.16 102.345 464.499 102.358C464.419 102.36 464.318 102.344 464.225 102.336C464.037 102.319 463.87 102.293 463.669 102.288C463.469 102.283 463.235 102.297 463.015 102.302C462.794 102.306 462.561 102.319 462.36 102.312C462.16 102.304 461.999 102.278 461.811 102.26C461.724 102.252 461.604 102.24 461.531 102.243C461.043 102.266 460.682 102.235 460.334 102.195C460.26 102.187 460.133 102.181 460.04 102.183C459.265 102.2 458.497 102.219 457.722 102.237C457.409 102.245 457.154 102.213 457.086 102.158C457.052 102.128 456.985 102.097 456.984 102.067C456.983 102.011 456.615 101.981 456.348 101.987C455.907 101.997 455.46 102.005 455.026 102.019C454.672 102.031 454.371 102.02 454.13 101.987C453.848 101.949 453.528 101.957 453.208 101.967C452.967 101.975 452.901 102.006 452.916 102.083C452.93 102.145 452.817 102.165 452.383 102.175C451.836 102.189 451.281 102.202 450.727 102.213C450.64 102.215 450.54 102.2 450.453 102.191C450.265 102.175 450.098 102.148 449.897 102.143C449.697 102.136 449.463 102.151 449.243 102.156C449.023 102.161 448.789 102.174 448.588 102.168C448.388 102.162 448.22 102.134 448.04 102.117C447.953 102.109 447.845 102.097 447.759 102.099C447.318 102.106 446.877 102.118 446.436 102.129C445.942 102.14 445.942 102.14 445.24 102.084C444.919 102.058 444.598 102.079 444.284 102.086C443.951 102.094 443.637 102.098 443.375 102.061C443.201 102.037 443.007 102.023 442.8 102.028C442.246 102.039 441.698 102.054 441.144 102.066C441.051 102.067 440.924 102.063 440.85 102.055C440.495 102.016 440.147 101.986 439.653 102.006C439.226 102.023 438.765 102.024 438.338 102.041C438.104 102.049 437.998 102.079 438.045 102.102C438.072 102.114 438.213 102.128 438.306 102.128C438.52 102.129 438.753 102.114 438.954 102.12C439.368 102.131 439.577 102.208 440.118 102.186C440.438 102.173 440.772 102.168 441.106 102.164C441.193 102.163 441.287 102.18 441.38 102.19C441.648 102.214 441.883 102.247 442.27 102.23C442.59 102.216 442.931 102.212 443.258 102.204C443.779 102.192 443.779 102.193 444.455 102.249C444.776 102.275 445.096 102.254 445.41 102.247C445.644 102.242 445.864 102.232 446.051 102.245C446.339 102.264 446.547 102.309 446.901 102.305C447.235 102.302 447.562 102.289 447.896 102.284C448.103 102.281 448.297 102.296 448.465 102.321C448.639 102.345 448.826 102.356 449.053 102.351C449.38 102.343 449.714 102.333 450.048 102.328C450.142 102.327 450.249 102.335 450.336 102.343C450.523 102.359 450.704 102.379 450.884 102.396C451.212 102.39 451.546 102.388 451.866 102.376C452.113 102.368 452.287 102.371 452.488 102.39C452.742 102.414 452.95 102.459 453.364 102.437C453.571 102.427 453.811 102.429 454.018 102.42C454.272 102.407 454.446 102.412 454.627 102.439C454.968 102.492 455.396 102.492 455.836 102.472C456.317 102.449 456.678 102.474 457.04 102.515C457.422 102.557 457.422 102.556 457.718 102.659C457.805 102.689 458.052 102.702 458.259 102.696C458.607 102.687 458.907 102.691 459.162 102.726C459.43 102.764 459.75 102.759 460.078 102.748C460.511 102.734 460.946 102.721 461.301 102.775C461.475 102.801 461.662 102.807 461.896 102.8C462.557 102.783 463.225 102.772 463.872 102.751C464.266 102.737 464.494 102.767 464.762 102.792C465.123 102.826 465.518 102.856 465.519 102.929C465.52 102.941 465.613 102.955 465.694 102.964C465.868 102.984 466.055 103 466.236 103.018C466.504 103.046 466.765 103.069 467.132 103.054C467.452 103.041 467.793 103.037 468.12 103.029C468.447 103.02 468.748 103.015 469.043 103.05C469.384 103.089 469.745 103.127 470.134 103.156C470.408 103.177 470.768 103.141 471.063 103.169C471.243 103.187 471.417 103.207 471.611 103.222C471.692 103.228 471.819 103.223 471.925 103.221C472.146 103.217 472.373 103.214 472.586 103.205C472.833 103.194 473.02 103.196 473.208 103.217C473.382 103.237 473.556 103.263 473.757 103.269C474.058 103.277 474.391 103.239 474.692 103.282C474.846 103.303 475.041 103.323 475.241 103.329C475.442 103.336 475.675 103.321 475.889 103.322C475.983 103.322 476.096 103.337 476.15 103.349C476.184 103.355 476.137 103.373 476.091 103.382C476.031 103.393 475.944 103.408 475.857 103.41C475.196 103.428 474.535 103.442 473.874 103.459C473.48 103.468 473.48 103.468 472.684 103.411C472.497 103.397 472.29 103.4 472.056 103.407C471.742 103.416 471.422 103.432 471.094 103.415C470.665 103.353 470.138 103.348 469.577 103.372C469.343 103.383 469.129 103.383 468.955 103.366C468.587 103.331 468.199 103.299 467.871 103.257C467.616 103.225 467.496 103.222 467.39 103.267C467.357 103.281 467.324 103.296 467.331 103.309C467.372 103.355 467.446 103.401 467.487 103.447C467.501 103.46 467.448 103.475 467.415 103.489C467.309 103.528 467.168 103.525 466.934 103.493C466.699 103.461 466.418 103.44 466.044 103.455C465.724 103.468 465.377 103.467 465.056 103.481C464.562 103.502 464.214 103.473 463.859 103.433C463.786 103.425 463.659 103.42 463.565 103.422C462.57 103.445 461.582 103.47 460.587 103.492C460.373 103.497 460.179 103.483 460.012 103.458C459.838 103.434 459.643 103.421 459.43 103.426C458.548 103.446 457.667 103.465 456.786 103.49C456.425 103.5 456.138 103.489 455.89 103.456C455.702 103.432 455.528 103.425 455.295 103.428C455.041 103.431 454.861 103.441 454.734 103.468C454.615 103.494 454.702 103.51 454.969 103.53C455.257 103.552 455.525 103.58 455.799 103.606C456.02 103.602 456.24 103.594 456.454 103.595C456.547 103.595 456.634 103.611 456.728 103.621C456.996 103.647 457.244 103.674 457.624 103.659C457.944 103.645 458.285 103.642 458.612 103.633C459.066 103.623 459.066 103.623 459.802 103.681C459.99 103.695 460.19 103.694 460.43 103.685C460.637 103.679 460.852 103.691 460.999 103.719C461.059 103.73 461.04 103.749 460.914 103.81C460.915 103.856 461.055 103.835 461.101 103.805C461.174 103.763 461.033 103.749 460.766 103.772C460.58 103.789 460.487 103.813 460.534 103.833C460.561 103.843 460.688 103.856 460.914 103.81C461.501 103.754 461.948 103.747 462.376 103.732C462.629 103.723 462.79 103.727 462.991 103.75C463.232 103.779 463.473 103.809 463.867 103.794C464.294 103.777 464.748 103.775 465.182 103.76C465.583 103.747 465.791 103.787 466.045 103.811C466.353 103.84 466.693 103.807 466.974 103.823C467.268 103.84 467.476 103.88 467.817 103.887C468.311 103.862 468.626 103.908 469 103.938C469.295 103.961 469.642 103.94 469.955 103.93C470.309 103.918 470.603 103.928 470.851 103.961C471.133 103.999 471.447 103.99 471.767 103.982C472.515 103.962 472.541 103.96 472.977 104.01C473.291 104.047 473.592 104.03 473.906 104.025C474.18 104.05 474.448 104.076 474.736 104.098C474.809 104.104 474.949 104.094 475.063 104.091C475.39 104.084 475.724 104.076 476.051 104.068C476.271 104.063 476.505 104.049 476.705 104.054C476.906 104.061 477.074 104.088 477.254 104.105C477.435 104.122 477.623 104.14 477.797 104.158C478.064 104.186 478.319 104.209 478.692 104.194C479.013 104.182 479.347 104.178 479.681 104.169C480.101 104.159 480.088 104.161 480.871 104.216C481.292 104.246 481.726 104.209 482.153 104.205C482.367 104.203 482.574 104.213 482.722 104.239C482.782 104.25 482.763 104.269 482.783 104.285C481.681 104.311 480.572 104.334 479.484 104.365C479.064 104.378 478.843 104.345 478.615 104.317C478.24 104.273 477.747 104.338 477.391 104.281C477.177 104.247 476.869 104.228 476.502 104.245C476.289 104.254 476.061 104.254 475.841 104.262C475.28 104.283 474.766 104.285 474.317 104.221C474.163 104.199 473.942 104.187 473.782 104.166C473.594 104.143 473.413 104.13 473.193 104.135C472.198 104.159 471.21 104.182 470.222 104.207C470.135 104.209 470.048 104.223 469.975 104.233C469.788 104.259 469.849 104.28 470.15 104.296C470.25 104.302 470.331 104.314 470.424 104.323C470.605 104.34 470.773 104.368 470.973 104.374C471.174 104.381 471.407 104.367 471.628 104.362C471.848 104.358 472.082 104.343 472.282 104.349C472.483 104.355 472.65 104.382 472.838 104.398C472.925 104.407 473.032 104.42 473.119 104.419C473.559 104.413 473.993 104.403 474.434 104.394C474.709 104.419 474.943 104.455 475.271 104.463C475.478 104.468 475.698 104.457 475.912 104.459C476.006 104.46 476.126 104.474 476.173 104.486C476.2 104.493 476.113 104.512 476.047 104.521C475.794 104.557 475.446 104.551 475.132 104.562C474.792 104.574 474.485 104.571 474.223 104.535C474.049 104.511 473.855 104.498 473.641 104.503C473.087 104.516 472.54 104.53 471.985 104.541C471.892 104.543 471.778 104.535 471.691 104.528C470.989 104.473 470.988 104.471 470.494 104.483C469.767 104.502 469.767 104.502 469.278 104.453C469.184 104.444 469.084 104.426 469.003 104.427C468.229 104.443 467.461 104.459 466.693 104.481C466.439 104.488 466.266 104.488 466.078 104.464C465.917 104.444 465.73 104.421 465.529 104.415C465.322 104.41 465.095 104.424 464.875 104.429C464.654 104.434 464.421 104.446 464.227 104.439C464.026 104.432 463.852 104.406 463.678 104.387C463.497 104.368 463.304 104.369 463.057 104.377C462.295 104.399 462.289 104.396 461.533 104.34C461.446 104.333 461.332 104.326 461.239 104.328C460.684 104.34 460.137 104.354 459.582 104.366C459.369 104.371 459.161 104.359 459.014 104.332C458.954 104.321 458.973 104.302 458.932 104.266C458.886 104.258 458.939 104.273 458.953 104.287C459.053 104.285 459.173 104.286 459.247 104.279C459.433 104.261 459.526 104.238 459.479 104.218C459.452 104.208 459.325 104.195 459.245 104.195C459.098 104.195 458.972 104.216 458.932 104.266C458.512 104.297 458.065 104.304 457.631 104.32C457.377 104.329 457.217 104.325 457.016 104.301C456.775 104.271 456.527 104.243 456.133 104.258C455.706 104.275 455.252 104.278 454.811 104.292C454.303 104.307 454.081 104.224 453.654 104.226C453.213 104.229 452.772 104.245 452.332 104.256C451.944 104.266 451.944 104.266 451.141 104.207C450.847 104.185 450.5 104.217 450.213 104.195C450.019 104.18 449.851 104.158 449.664 104.142C449.583 104.136 449.457 104.136 449.356 104.138C448.802 104.15 448.241 104.158 447.707 104.179C447.1 104.203 446.638 104.178 446.203 104.124C445.655 104.134 445.101 104.141 444.56 104.159C444.166 104.172 443.938 104.142 443.671 104.117C443.577 104.109 443.497 104.095 443.396 104.091C443.296 104.088 443.176 104.095 443.069 104.098C442.628 104.109 442.174 104.114 441.747 104.131C441.219 104.153 441.018 104.077 440.61 104.068C440.337 104.114 440.191 104.176 439.65 104.182C439.209 104.186 438.769 104.201 438.328 104.212C438.108 104.217 437.887 104.222 437.667 104.227C437.313 104.236 437.147 104.272 437.221 104.328C437.262 104.359 437.296 104.389 437.33 104.42C437.398 104.474 437.232 104.521 436.951 104.528C436.177 104.546 435.409 104.566 434.634 104.582C434.427 104.587 434.227 104.571 434.059 104.547C433.885 104.522 433.691 104.511 433.477 104.516C432.703 104.534 431.935 104.553 431.16 104.57C431.073 104.572 430.96 104.563 430.873 104.556C430.685 104.539 430.504 104.52 430.324 104.502C429.883 104.511 429.449 104.517 429.015 104.529C428.314 104.546 428.314 104.547 427.798 104.497C427.705 104.487 427.611 104.47 427.524 104.471C427.19 104.475 426.863 104.485 426.529 104.493C425.547 104.518 425.547 104.518 425.259 104.491C424.998 104.465 424.764 104.434 424.37 104.449C423.943 104.466 423.489 104.472 423.048 104.482C422.721 104.489 422.394 104.497 422.066 104.499C421.979 104.5 421.886 104.482 421.792 104.473C421.524 104.445 421.263 104.422 420.896 104.438C420.682 104.447 420.455 104.45 420.235 104.454C419.661 104.468 419.661 104.468 418.717 104.413C418.624 104.408 418.51 104.401 418.417 104.404C417.642 104.422 416.874 104.441 416.1 104.458C416.006 104.46 415.892 104.454 415.799 104.45C414.742 104.397 414.742 104.397 413.62 104.424C413.193 104.434 413.18 104.438 412.731 104.389C412.53 104.368 412.363 104.358 412.129 104.364C411.248 104.388 410.36 104.403 409.485 104.43C409.091 104.442 408.864 104.414 408.596 104.39C408.502 104.381 408.402 104.363 408.321 104.364C407.44 104.382 406.558 104.405 405.677 104.423C405.597 104.425 405.496 104.407 405.403 104.398C405.222 104.382 405.048 104.357 404.847 104.352C404.64 104.346 404.413 104.361 404.186 104.365C403.632 104.378 403.632 104.377 402.989 104.323C402.902 104.316 402.789 104.306 402.702 104.308C401.82 104.327 400.932 104.344 400.057 104.372C399.557 104.387 399.215 104.36 398.861 104.322C398.787 104.314 398.66 104.31 398.566 104.312C397.571 104.334 396.583 104.359 395.588 104.382C395.381 104.387 395.18 104.371 395.013 104.347C394.745 104.309 394.431 104.314 394.097 104.323C393.329 104.343 393.323 104.342 392.868 104.298C392.774 104.289 392.693 104.277 392.593 104.273C392.5 104.268 392.379 104.271 392.279 104.273C391.838 104.283 391.398 104.293 390.957 104.304C390.516 104.315 390.069 104.321 389.635 104.337C389.101 104.357 388.846 104.297 388.471 104.27C387.923 104.282 387.362 104.29 386.822 104.31C386.408 104.326 386.213 104.285 385.939 104.264C385.845 104.257 385.745 104.241 385.658 104.243C384.663 104.264 383.668 104.288 382.68 104.314C382.439 104.32 382.279 104.312 382.078 104.29C381.629 104.241 381.609 104.242 380.862 104.262C380.534 104.27 380.22 104.278 379.939 104.24C379.691 104.206 379.391 104.198 379.037 104.21C378.603 104.224 378.155 104.232 377.715 104.242C377.274 104.253 376.833 104.267 376.392 104.272C376.038 104.277 375.824 104.234 375.543 104.212C375.456 104.205 375.336 104.204 375.235 104.206C374.795 104.215 374.34 104.222 373.913 104.238C373.393 104.258 373.104 104.208 372.736 104.178C372.656 104.172 372.522 104.176 372.422 104.179C371.647 104.196 370.88 104.216 370.105 104.234C369.831 104.209 369.55 104.185 369.275 104.161C368.834 104.17 368.394 104.181 367.953 104.191C367.619 104.199 367.278 104.202 366.965 104.216C366.558 104.235 366.356 104.192 366.082 104.171C365.988 104.163 365.888 104.148 365.801 104.149C365.247 104.16 364.692 104.172 364.145 104.188C363.624 104.205 363.415 104.121 362.988 104.123C362.547 104.124 362.093 104.137 361.666 104.154C361.172 104.174 360.824 104.145 360.469 104.105C360.395 104.097 360.268 104.092 360.175 104.094C359.621 104.106 359.073 104.12 358.519 104.132C358.425 104.134 358.312 104.13 358.218 104.124C357.161 104.07 357.161 104.069 356.701 104.081C356.373 104.089 356.04 104.098 355.706 104.103C355.612 104.105 355.498 104.097 355.411 104.09C354.715 104.034 354.715 104.033 354.214 104.045C353.774 104.055 353.333 104.066 352.892 104.077C352.618 104.052 352.337 104.028 352.062 104.003C351.515 104.016 350.954 104.026 350.413 104.043C350.159 104.051 349.992 104.048 349.798 104.025C349.557 103.998 349.316 103.965 348.915 103.982C348.488 103.999 348.034 104.001 347.6 104.015C347.079 104.033 346.864 103.948 346.443 103.95C346.002 103.951 345.548 103.964 345.121 103.981C344.627 104.001 344.279 103.972 343.924 103.932C343.85 103.924 343.723 103.919 343.63 103.921C342.415 103.949 341.206 103.978 339.991 104.008C339.243 104.026 339.243 104.027 337.819 103.977C337.719 103.974 337.611 103.97 337.511 103.972C337.07 103.981 336.616 103.988 336.189 104.004C335.668 104.024 335.38 103.974 335.012 103.944C334.932 103.938 334.805 103.942 334.698 103.944C334.364 103.95 334.037 103.959 333.703 103.967C333.262 103.978 332.822 103.988 332.381 103.999C332.107 103.975 331.826 103.95 331.551 103.926C331.004 103.939 330.443 103.946 329.902 103.966C329.488 103.982 329.293 103.943 329.019 103.921C328.925 103.913 328.825 103.898 328.738 103.899C327.743 103.92 326.748 103.943 325.76 103.97C325.353 103.981 325.165 103.94 324.89 103.919C324.797 103.912 324.69 103.9 324.603 103.902C323.942 103.916 323.281 103.932 322.62 103.949C322.246 103.959 322.246 103.959 321.429 103.902C321.336 103.895 321.229 103.889 321.135 103.891C319.039 103.94 316.948 103.991 314.852 104.04C314.638 104.044 314.444 104.031 314.277 104.006C314.102 103.981 313.908 103.968 313.695 103.973C312.813 103.993 311.925 104.012 311.05 104.037C310.69 104.048 310.402 104.036 310.154 104.004C309.967 103.98 309.793 103.971 309.559 103.976C309.119 103.988 308.678 103.998 308.237 104.008C307.797 104.019 307.356 104.03 306.915 104.04C306.474 104.051 306.027 104.057 305.593 104.073C305.059 104.093 304.797 104.036 304.429 104.008C303.768 104.022 303.107 104.037 302.453 104.053C301.571 104.073 300.69 104.095 299.808 104.115C299.728 104.117 299.628 104.1 299.534 104.092C299.26 104.069 299.058 104.037 298.651 104.047C296.675 104.099 294.685 104.142 292.702 104.193C292.288 104.203 292.106 104.164 291.825 104.143C291.732 104.136 291.625 104.123 291.538 104.125C290.436 104.15 289.334 104.177 288.232 104.203C287.785 104.214 287.785 104.214 287.036 104.157C286.949 104.151 286.835 104.142 286.741 104.144C285.306 104.177 283.877 104.212 282.441 104.246C282.227 104.251 282.033 104.238 281.859 104.213C281.692 104.189 281.491 104.175 281.284 104.18C279.962 104.211 278.633 104.241 277.318 104.275C276.964 104.284 276.67 104.276 276.415 104.243C276.234 104.219 276.054 104.209 275.827 104.215C273.843 104.263 271.86 104.308 269.877 104.359C269.496 104.368 269.229 104.351 268.988 104.321C268.793 104.297 268.626 104.292 268.386 104.296C268.132 104.301 267.979 104.312 267.839 104.34C267.659 104.376 267.547 104.422 267.119 104.425C266.678 104.428 266.231 104.44 265.797 104.456C265.383 104.472 265.189 104.43 264.927 104.406C264.733 104.388 264.553 104.386 264.306 104.394C264.079 104.402 263.939 104.418 263.806 104.448C263.513 104.511 263.487 104.511 263.125 104.472C262.931 104.45 262.757 104.434 262.543 104.438C261.662 104.457 260.78 104.479 259.899 104.501C259.391 104.514 259.385 104.515 259.003 104.469C258.816 104.446 258.635 104.436 258.415 104.441C255.991 104.5 253.567 104.556 251.143 104.617C250.769 104.627 250.515 104.607 250.247 104.58C250.16 104.571 250.073 104.558 249.972 104.554C249.872 104.551 249.759 104.554 249.652 104.556C247.889 104.598 246.119 104.638 244.363 104.684C243.963 104.695 243.748 104.666 243.474 104.642C243.38 104.633 243.3 104.621 243.199 104.617C243.099 104.614 242.979 104.621 242.872 104.624C241.109 104.666 239.34 104.705 237.584 104.752C237.163 104.762 236.982 104.724 236.708 104.704C236.614 104.696 236.513 104.682 236.427 104.684C235.872 104.695 235.325 104.71 234.771 104.722C233.448 104.754 232.126 104.784 230.804 104.817C230.297 104.83 230.074 104.748 229.647 104.752C229.093 104.757 228.545 104.776 227.991 104.79C227.55 104.8 227.109 104.81 226.669 104.822C226.235 104.832 226.235 104.832 225.151 104.78C225.058 104.775 224.944 104.769 224.851 104.771C223.308 104.807 221.759 104.843 220.223 104.881C219.869 104.89 219.575 104.886 219.321 104.852C219.14 104.828 218.953 104.816 218.732 104.822C216.415 104.877 214.105 104.932 211.787 104.987C211.701 104.989 211.587 104.98 211.5 104.972C211.313 104.956 211.132 104.936 210.951 104.919C210.818 104.941 210.645 104.96 210.558 104.984C210.439 105.017 210.279 105.026 210.025 105.032C209.771 105.038 209.611 105.036 209.41 105.013C209.169 104.983 208.921 104.96 208.527 104.97C206.103 105.031 203.679 105.086 201.255 105.146C200.855 105.156 200.667 105.115 200.386 105.094C200.292 105.088 200.185 105.078 200.098 105.08C199.103 105.102 198.115 105.126 197.12 105.15C194.362 105.216 191.604 105.279 188.853 105.349C188.353 105.361 188.011 105.338 187.656 105.299C187.583 105.291 187.456 105.286 187.362 105.288C183.503 105.379 179.643 105.472 175.79 105.564C175.583 105.569 175.382 105.554 175.215 105.53C175.041 105.505 174.847 105.493 174.633 105.498C172.87 105.54 171.107 105.582 169.345 105.624C168.904 105.635 168.897 105.636 168.442 105.592C168.348 105.583 168.248 105.565 168.174 105.567C168.021 105.572 167.874 105.595 167.768 105.627C167.662 105.661 167.495 105.67 167.248 105.677C166.994 105.684 166.827 105.681 166.633 105.659C166.385 105.631 166.157 105.605 165.757 105.614C160.689 105.738 155.62 105.858 150.552 105.981C150.145 105.991 149.957 105.952 149.676 105.931C149.582 105.925 149.489 105.915 149.388 105.914C149.281 105.912 149.168 105.918 149.061 105.921C140.794 106.118 132.528 106.316 124.261 106.513C123.767 106.524 123.774 106.524 123.234 106.61C123.168 106.621 123.081 106.635 122.987 106.637C120.457 106.699 117.919 106.759 115.382 106.819C114.28 106.845 113.178 106.872 112.076 106.898C111.683 106.906 111.683 106.906 110.743 107.008C110.663 107.016 110.569 107.027 110.476 107.029C106.069 107.135 101.661 107.241 97.2475 107.345C96.9003 107.353 96.6201 107.37 96.4606 107.414C96.3477 107.446 96.2011 107.465 95.9808 107.471C92.8958 107.544 89.8109 107.619 86.7192 107.691C86.3519 107.7 86.1319 107.726 85.9523 107.765C85.8924 107.778 85.8392 107.793 85.7526 107.802C85.6726 107.811 85.5524 107.814 85.4523 107.817C82.808 107.88 80.1638 107.945 77.5128 108.005C77.1188 108.014 76.9591 108.048 76.7661 108.085C76.6995 108.097 76.653 108.114 76.5664 108.122C76.4797 108.13 76.3527 108.13 76.2459 108.132C74.0423 108.184 71.8388 108.238 69.6353 108.29C69.2076 108.286 69.1151 108.34 68.9087 108.372C68.8354 108.384 68.7824 108.399 68.6957 108.406C68.6023 108.414 68.4819 108.413 68.3683 108.415C66.6055 108.457 64.8427 108.501 63.0731 108.54C62.6658 108.549 62.5865 108.596 62.3667 108.629C62.2934 108.639 62.2204 108.655 62.1336 108.658C61.0318 108.686 59.9301 108.712 58.8282 108.738C58.461 108.746 58.461 108.745 57.8148 108.838C57.7415 108.848 57.6548 108.859 57.5613 108.862C55.912 108.903 54.256 108.942 52.6 108.982C52.3863 108.987 52.2398 109.009 52.1336 109.041C52.0273 109.072 51.8741 109.093 51.6604 109.098C50.3383 109.13 49.0161 109.163 47.6939 109.192C47.3266 109.2 47.0866 109.223 46.9271 109.265C46.8075 109.297 46.6609 109.313 46.4272 109.319C45.105 109.35 43.7829 109.384 42.454 109.411C42.0667 109.419 41.8668 109.451 41.7073 109.49C41.581 109.521 41.4342 109.533 41.1872 109.539C38.7632 109.595 36.3326 109.651 33.9155 109.713C33.5082 109.724 33.3004 109.692 33.0327 109.669C32.6512 109.637 32.2965 109.602 32.2951 109.529C32.2949 109.518 32.181 109.505 32.1006 109.496C31.5047 109.427 31.5047 109.427 31.4096 109.353C31.3553 109.308 31.2942 109.261 31.2465 109.215C31.1581 109.139 30.9439 109.12 30.3296 109.134C30.1092 109.139 29.8889 109.146 29.6685 109.15C29.3413 109.157 29.0935 109.126 29.0323 109.071C28.9982 109.04 28.9576 109.009 28.9236 108.979C29.2575 108.971 29.2507 108.97 29.8363 108.857C30.0825 108.81 30.0826 108.81 29.6074 108.763C29.4266 108.745 29.2525 108.726 29.0584 108.709C28.9714 108.702 28.8578 108.698 28.7643 108.7C28.21 108.711 27.6625 108.725 27.115 108.738C26.2336 108.76 26.2334 108.76 25.3363 108.666C25.2627 108.659 25.1489 108.645 25.1621 108.637C25.2349 108.603 25.4149 108.588 25.642 108.584C25.9759 108.578 26.303 108.568 26.6302 108.561C26.8506 108.556 27.0709 108.55 27.2913 108.545C27.4977 108.51 27.7109 108.475 27.9039 108.439C28.2101 108.383 28.2099 108.381 27.7883 108.342C27.5205 108.317 27.2328 108.294 26.9584 108.27C26.6312 108.278 26.2974 108.286 25.9702 108.293C25.5561 108.302 25.3887 108.284 25.2806 108.224C25.186 108.171 25.2987 108.126 25.6191 108.114C25.9463 108.103 26.2536 108.095 26.4196 108.048C26.579 108.002 26.8592 107.984 27.2065 107.98C27.4269 107.977 27.6473 107.97 27.8676 107.964C28.1547 107.957 28.3075 107.909 28.2463 107.856C28.2122 107.822 28.1448 107.793 27.8841 107.786C26.7277 107.755 26.7143 107.756 26.1385 107.693C26.0849 107.688 26.0446 107.671 26.0644 107.663C26.0976 107.649 26.1707 107.628 26.2508 107.625C27.0186 107.604 27.7865 107.585 28.5545 107.57C28.8082 107.565 28.9952 107.559 29.0813 107.524C29.2006 107.477 29.1463 107.433 28.9118 107.401C28.8382 107.391 28.7175 107.378 28.6374 107.379C27.7559 107.396 26.8812 107.419 25.9997 107.436C25.9196 107.438 25.7724 107.423 25.7387 107.411C25.6715 107.388 25.771 107.359 26.0046 107.348C26.3116 107.334 26.6256 107.333 26.8318 107.286C27.1177 107.22 27.4705 107.159 27.7899 107.096C27.8431 107.084 27.9297 107.063 27.9096 107.061C27.7422 107.041 27.5481 107.025 27.374 107.006C27.0794 106.974 27.0784 106.928 27.1443 106.885C27.1971 106.849 27.3972 106.835 27.6444 106.835C27.7513 106.835 27.8849 106.835 27.9716 106.826C28.1983 106.806 28.2713 106.78 28.1573 106.76C28.0903 106.749 27.9698 106.734 27.8896 106.735C26.4606 106.768 25.0248 106.799 23.6026 106.838C23.1819 106.85 22.9876 106.815 22.7333 106.79C22.5391 106.771 22.3585 106.764 22.1183 106.778C21.8914 106.791 21.6709 106.784 21.53 106.753C21.4159 106.728 21.6158 106.707 22.1565 106.682C22.2566 106.677 22.3701 106.674 22.4434 106.665C23.2163 106.564 23.2162 106.563 23.7504 106.55C24.2713 106.537 24.2714 106.536 24.5442 106.482C24.6706 106.457 24.8103 106.431 24.93 106.405C24.9766 106.395 25.0565 106.376 25.0296 106.371C24.8821 106.342 24.6814 106.336 24.4478 106.343C23.927 106.359 23.3122 106.347 23.0401 106.435C22.9339 106.469 22.767 106.478 22.5266 106.484C20.1094 106.54 17.6921 106.6 15.2681 106.655C14.8741 106.664 14.6945 106.698 14.5416 106.736C14.4087 106.768 14.2618 106.778 14.0081 106.783C13.7543 106.789 13.5539 106.792 13.4063 106.762C13.3191 106.743 13.392 106.717 13.5919 106.691C13.8785 106.654 13.8241 106.607 13.7296 106.564C13.6623 106.535 13.4548 106.515 13.2343 106.517C12.9071 106.521 12.5934 106.532 12.3187 106.495C12.158 106.473 11.9572 106.459 11.7764 106.44C11.4283 106.403 11.0801 106.364 10.5929 106.39C10.2587 106.381 10.0242 106.348 9.75647 106.322C9.30802 106.28 9.2678 106.273 9.58755 106.227C9.94727 106.176 9.66529 106.109 9.8647 106.059C10.0774 106.005 10.3705 105.957 10.63 105.907C10.6966 105.894 10.7565 105.882 10.823 105.869C10.669 105.85 10.5282 105.827 10.3476 105.815C10.1135 105.798 9.99279 105.778 10.005 105.72C9.95806 105.712 9.97839 105.733 10.0319 105.739C10.0922 105.744 10.2392 105.739 10.3125 105.733C10.4992 105.715 10.5922 105.692 10.545 105.672C10.5181 105.662 10.391 105.649 10.3108 105.649C10.1639 105.649 10.0374 105.67 9.9983 105.72C9.25085 105.759 8.47615 105.778 7.7015 105.794C7.62137 105.796 7.52085 105.778 7.42714 105.768C7.11919 105.737 7.11917 105.738 6.21711 105.73C6.12356 105.729 5.99644 105.716 5.94941 105.703C5.75453 105.647 5.76001 105.584 5.66527 105.524C5.83818 105.485 6.01097 105.447 6.19058 105.409C6.54978 105.331 7.01615 105.263 7.29504 105.178C7.234 105.133 7.1529 105.087 7.4461 105.05C8.28023 105.003 8.2736 105.003 8.49984 104.958C9.14532 104.831 9.78405 104.703 10.4563 104.578C10.636 104.545 10.6357 104.528 10.3147 104.514C10.2144 104.511 10.1074 104.51 10.0005 104.512C9.66664 104.519 9.33295 104.536 9.00553 104.532C8.67813 104.53 8.43681 104.489 8.16908 104.464C7.89465 104.439 7.62022 104.412 7.34577 104.385C7.03184 104.389 6.71844 104.415 6.40361 104.373C6.16246 104.341 5.86138 104.318 5.58694 104.292C5.79261 104.221 6.17906 104.167 6.47843 104.104C6.75119 104.047 6.75774 104.048 7.49173 104.004C7.8387 103.983 7.95685 103.878 7.66229 103.848C7.30747 103.811 6.93274 103.777 6.57128 103.742C6.25735 103.745 5.93725 103.771 5.63579 103.729C5.40133 103.698 5.13363 103.677 4.7464 103.689C4.09211 103.71 3.42428 103.721 2.76324 103.739C2.53622 103.744 2.28889 103.741 2.18804 103.71C2.12079 103.687 2.31392 103.657 2.53425 103.65C2.86809 103.64 3.16846 103.629 3.33454 103.582C3.49394 103.536 3.78757 103.521 4.13483 103.514C4.22832 103.512 4.33506 103.501 4.3816 103.49C4.62101 103.436 4.88732 103.389 5.40176 103.391C5.61517 103.372 5.7282 103.348 5.66094 103.326C5.62062 103.314 5.48008 103.299 5.39995 103.301C4.84565 103.31 4.29137 103.32 3.75058 103.338C3.49687 103.345 3.30306 103.347 3.14217 103.32C3.02823 103.301 3.08784 103.276 3.30108 103.249C3.48766 103.226 3.54062 103.199 3.52663 103.167C3.49175 103.094 3.29086 103.073 2.64962 103.078C2.18874 103.082 2.07492 103.07 1.97344 103.007C1.94642 102.992 1.87932 102.972 1.92587 102.962C2.21187 102.898 2.39736 102.82 2.93789 102.79C3.15145 102.778 3.37849 102.778 3.51162 102.754C3.64474 102.73 3.76449 102.702 3.90431 102.678C4.07745 102.65 4.19706 102.624 4.11654 102.607C3.98229 102.575 3.76853 102.573 3.52157 102.584C3.30798 102.594 3.08086 102.595 2.86052 102.601C2.46657 102.611 2.14549 102.587 2.0979 102.547C1.9688 102.439 1.833 102.332 1.71726 102.225C1.70364 102.212 1.73661 102.195 1.78983 102.184C1.9761 102.145 2.17585 102.108 2.36882 102.069C2.59508 102.025 2.95606 102.033 3.2632 102.025C3.69719 102.012 3.69706 102.013 4.27647 101.923C4.5029 101.888 4.89735 101.901 5.13054 101.87C5.20382 101.859 5.31705 101.842 5.29682 101.833C5.26986 101.821 5.13613 101.812 5.03581 101.807C4.94217 101.801 4.82857 101.798 4.72842 101.801C3.5131 101.829 2.30453 101.86 1.08919 101.887C0.882185 101.892 0.654628 101.871 0.580562 101.843C0.506533 101.816 0.525855 101.783 0.511877 101.753C0.704846 101.715 0.924509 101.679 1.0907 101.638C1.217 101.606 1.36371 101.592 1.61754 101.59C1.95151 101.587 2.27867 101.576 2.65261 101.567C3.34466 101.431 4.02317 101.288 4.76866 101.152C5.06818 101.096 4.99369 101.041 5.05264 100.982C5.11168 100.928 5.55942 100.936 5.85973 100.92C6.09996 100.907 6.17943 100.877 6.08549 100.857C6.0318 100.845 5.91134 100.831 5.81781 100.831C5.59735 100.831 5.37707 100.84 5.1567 100.845C4.93634 100.85 4.68243 100.847 4.50237 100.863C4.32898 100.878 4.21598 100.91 4.10295 100.937C3.97662 100.967 3.80993 100.977 3.5561 100.979C3.22879 100.981 2.90163 100.99 2.57442 100.997C2.21294 100.961 1.83804 100.926 1.48988 100.889C1.42293 100.881 1.40906 100.86 1.41546 100.846C1.4281 100.81 1.32746 100.788 1.10665 100.77C0.919295 100.756 0.765199 100.734 0.59113 100.716C0.724236 100.691 0.870774 100.666 0.977121 100.639C1.2098 100.583 1.50295 100.541 2.01072 100.543C2.2104 100.506 2.36979 100.462 2.62983 100.436C2.87652 100.412 3.29791 100.436 3.48386 100.381C3.57684 100.354 3.7166 100.323 3.89675 100.311C4.18366 100.294 4.55795 100.302 4.72392 100.25C4.82353 100.22 4.9699 100.193 5.16348 100.186C5.38377 100.177 5.61082 100.175 5.77079 100.157C5.85746 100.148 5.9507 100.133 5.95044 100.12C5.95027 100.112 5.8165 100.099 5.72286 100.093C5.63588 100.087 5.52209 100.082 5.42192 100.084C5.088 100.09 4.76086 100.101 4.42695 100.107C4.33346 100.109 4.22647 100.102 4.12615 100.097C3.83191 100.082 3.85153 100.064 4.08468 100.03C4.31785 99.9973 4.48411 99.9554 4.67708 99.9171C4.89073 99.9104 5.15797 99.9129 5.30458 99.8951C5.55118 99.8661 5.72399 99.8241 5.92368 99.7877C6.14402 99.7819 6.37111 99.7798 6.57801 99.7694C6.66478 99.7656 6.70448 99.7451 6.77773 99.733C6.91087 99.7096 7.02386 99.6761 7.20401 99.6648C7.49762 99.6478 7.85849 99.6539 8.03116 99.6026C8.13077 99.5728 8.28373 99.5411 8.47074 99.5391C8.99175 99.5348 9.21119 99.4835 9.47744 99.435C9.67713 99.3986 10.1051 99.4167 10.3248 99.3803C10.4713 99.3569 10.5777 99.328 10.7242 99.3056C10.7841 99.2962 10.9109 99.2915 11.0111 99.2886C11.5586 99.2741 12.1129 99.2633 12.6604 99.2479C12.7472 99.245 12.8271 99.231 12.8937 99.2198C13.0335 99.1955 13.1196 99.162 13.293 99.146C13.4663 99.1301 13.7135 99.1298 13.9272 99.1249C14.615 99.1103 14.6686 99.1139 14.981 99.0347C15.2335 98.9704 15.8558 99.0152 16.0615 98.9445C16.1809 98.9035 16.4006 98.8699 16.7947 98.8648C17.349 98.8577 17.8965 98.8395 18.4507 98.8269C18.9448 98.8152 18.9382 98.8152 19.4709 98.7283C19.7106 98.6891 20.0649 98.6943 20.3787 98.6865C20.7126 98.6788 21.0196 98.6673 21.179 98.6207C21.3384 98.5751 21.632 98.5599 21.9726 98.5531C22.2865 98.5462 22.6407 98.5505 22.8871 98.5131C23.4866 98.4234 23.4799 98.4225 23.9006 98.4127C24.5617 98.3972 25.2227 98.3817 25.8838 98.3652C26.3245 98.3545 26.7854 98.3522 27.1992 98.3313C27.4995 98.3162 27.632 98.264 27.8251 98.2276C28.3726 98.2131 28.9201 98.1986 29.4676 98.1851C30.2355 98.1657 31.0101 98.1482 31.7847 98.1297C32.118 98.0941 32.1633 98.0161 32.7244 98.0118C33.0584 98.0096 33.3855 97.9972 33.7194 97.9894C34.2736 97.9758 34.821 97.9585 35.3754 97.9515C35.7962 97.9464 35.8685 97.8962 36.0884 97.8644C36.1616 97.8532 36.2282 97.8373 36.315 97.8344C37.1829 97.8075 38.0779 97.801 38.9256 97.7621C39.0124 97.7583 39.0922 97.7387 39.1119 97.7248C39.1251 97.7173 39.0113 97.7035 38.9377 97.6971C38.8507 97.6898 38.737 97.6825 38.6435 97.6844C35.8857 97.7495 33.128 97.8155 30.3701 97.8806C29.9828 97.8903 29.9828 97.8894 29.0429 97.9924C28.9629 98.0009 28.8695 98.0103 28.7693 98.0132C28.3286 98.0248 27.8812 98.0317 27.4472 98.0461C27.0934 98.0576 26.7993 98.0468 26.5448 98.0136C26.3639 97.9897 26.1766 97.9825 25.9495 97.9846C25.6957 97.9876 25.529 97.998 25.3825 98.0232C25.1895 98.0578 25.0902 98.1024 24.6828 98.1121C22.8064 98.154 20.9299 98.2005 19.0602 98.2452C18.7994 98.2325 18.6721 98.2131 18.7385 98.1898C18.7783 98.1759 18.8581 98.1572 18.9382 98.1553C19.7061 98.135 20.4807 98.1175 21.2486 98.0981C21.3554 98.0952 21.5024 98.0969 21.5623 98.0875C21.8554 98.0455 21.9611 97.9776 22.5155 97.9724C22.8361 97.9693 23.1631 97.955 23.4701 97.9417C23.5569 97.9379 23.6367 97.9183 23.6565 97.9043C23.663 97.8969 23.5558 97.8831 23.4755 97.8767C23.181 97.8501 22.8411 97.8829 22.5467 97.8647C22.4464 97.8583 22.3058 97.8491 22.2856 97.838C22.272 97.8278 22.3852 97.811 22.4652 97.8007C22.5385 97.7914 22.6385 97.7829 22.7386 97.78C23.62 97.7577 24.5016 97.7345 25.3831 97.7169C25.7437 97.71 25.997 97.6865 26.1565 97.6437C26.2761 97.612 26.4227 97.5951 26.6498 97.5903C28.1923 97.5543 29.7347 97.5146 31.284 97.4814C31.6713 97.4736 31.8712 97.4428 32.0307 97.4027C32.157 97.371 32.3037 97.3597 32.5508 97.3539C34.7611 97.3033 36.9579 97.2472 39.1682 97.1984C39.5755 97.1896 39.6951 97.1496 39.9015 97.115C39.9747 97.1029 40.0211 97.088 40.1144 97.0805C40.2078 97.073 40.3281 97.0738 40.4416 97.0718C42.2045 97.03 43.9674 96.9855 45.737 96.9465C46.151 96.9377 46.2301 96.8912 46.4433 96.8585C46.5165 96.8482 46.5831 96.8314 46.6699 96.8286C47.992 96.7956 49.3141 96.7645 50.6362 96.7325C51.5176 96.7112 52.399 96.6898 53.2805 96.6694C53.7145 96.6597 53.7145 96.6587 54.3006 96.5699C54.3672 96.5596 54.4606 96.5475 54.5474 96.5446C57.0848 96.4825 59.6155 96.4233 62.153 96.3621C62.3667 96.3573 62.5199 96.3358 62.6261 96.3041C62.7324 96.2724 62.8857 96.2509 63.0927 96.246C65.0759 96.1976 67.0591 96.15 69.049 96.1043C69.4096 96.0965 69.663 96.0739 69.8224 96.032C69.9421 96.0003 70.0887 95.9835 70.3157 95.9786C72.299 95.9319 74.2822 95.8825 76.2722 95.8377C76.6528 95.829 76.8392 95.7972 77.0255 95.7599C77.092 95.7468 77.1451 95.7254 77.2252 95.7235C78.2134 95.6965 79.1949 95.6685 80.1899 95.6498C80.6039 95.642 80.7435 95.6028 80.9098 95.5655C81.0428 95.5357 81.1963 95.5253 81.4501 95.5214C82.0044 95.5124 82.5518 95.4961 83.0926 95.4797C83.1728 95.4769 83.2726 95.4563 83.279 95.4433C83.2919 95.4192 83.1378 95.4026 82.8838 95.3945C80.2395 95.4577 77.5886 95.5208 74.9443 95.5839C74.5103 95.5945 74.5103 95.5945 73.9242 95.6833C73.8576 95.6936 73.7642 95.7058 73.6707 95.7087C71.1333 95.7698 68.6026 95.83 66.0651 95.8911C65.8515 95.896 65.6983 95.9175 65.592 95.9492C65.4857 95.9809 65.3324 96.0024 65.1254 96.0072C62.7015 96.0655 60.2776 96.1246 57.847 96.1801C57.4864 96.1879 57.233 96.2095 57.0735 96.2524C56.9539 96.284 56.8073 96.3009 56.5802 96.3058C54.2631 96.3602 51.9526 96.4174 49.6288 96.4699C49.3951 96.4748 49.221 96.4481 49.2338 96.423C49.2402 96.41 49.3399 96.3886 49.42 96.3866C50.6286 96.3547 51.8306 96.3219 53.0459 96.2974C53.4533 96.2896 53.5726 96.2486 53.779 96.2141C53.8456 96.2019 53.8988 96.1861 53.9855 96.1795C54.0789 96.172 54.1991 96.1728 54.3127 96.1708C57.1773 96.1019 60.042 96.0321 62.9134 95.9669C63.3274 95.9571 63.4065 95.9116 63.6196 95.8789C63.6929 95.8676 63.7594 95.8509 63.8462 95.8489C64.7276 95.8257 65.609 95.8053 66.4905 95.7849C68.033 95.748 69.5754 95.7111 71.1246 95.6742C71.572 95.6635 71.572 95.6635 72.1448 95.5757C72.2114 95.5654 72.3048 95.5523 72.3916 95.5504C76.4715 95.4523 80.5515 95.3543 84.6314 95.2572C84.8451 95.2523 84.9983 95.2308 85.1046 95.1992C85.2108 95.1684 85.364 95.146 85.571 95.1402C91.0866 95.0082 96.5955 94.8761 102.111 94.746C102.472 94.7372 102.725 94.7175 102.885 94.6737C102.998 94.642 103.151 94.6251 103.378 94.6193C109.441 94.4747 115.504 94.33 121.574 94.1844C125.654 94.0873 129.734 93.9884 133.814 93.8931C134.188 93.8844 134.388 93.8554 134.574 93.8171C134.634 93.8041 134.694 93.7827 134.774 93.7807C135.648 93.7566 136.523 93.7343 137.398 93.7121C137.672 93.7368 137.947 93.7607 138.221 93.7855C138.427 93.75 138.627 93.7136 138.834 93.6781C140.156 93.6498 141.458 93.6066 142.793 93.5922C142.88 93.5912 142.974 93.6088 143.068 93.6179C143.69 93.6758 144.044 93.6708 144.437 93.5924C144.577 93.5644 144.696 93.5392 144.91 93.5343C145.571 93.5169 146.239 93.5051 146.893 93.4849C147.247 93.4743 147.541 93.4833 147.796 93.5164C147.977 93.5404 148.164 93.5504 148.384 93.5446C149.6 93.5155 150.808 93.4873 152.023 93.4563C152.11 93.4544 152.19 93.4385 152.257 93.4273C152.396 93.403 152.516 93.3769 152.649 93.3517C152.83 93.3673 153.031 93.3792 153.178 93.3994C153.366 93.4234 153.539 93.4232 153.793 93.4164C158.641 93.299 163.495 93.1844 168.343 93.0661C168.757 93.0563 168.938 93.0951 169.219 93.1153C169.313 93.1226 169.407 93.1318 169.507 93.1335C169.614 93.1353 169.727 93.1296 169.834 93.1267C173.473 93.0393 177.113 92.9529 180.752 92.8655C181.233 92.8539 181.233 92.8539 181.949 92.9107C182.036 92.918 182.149 92.9263 182.243 92.9234C183.899 92.8854 185.555 92.8447 187.204 92.8059C187.418 92.801 187.599 92.8157 187.793 92.8368C188.175 92.8782 188.201 92.8781 188.48 92.8166C188.613 92.7877 188.753 92.7699 188.974 92.7613C189.214 92.7518 189.408 92.7544 189.595 92.7709C189.863 92.7938 190.058 92.8326 190.465 92.8219C192.228 92.7765 193.997 92.7384 195.753 92.692C196.154 92.6814 196.368 92.7127 196.636 92.7356C196.73 92.7439 196.817 92.7568 196.917 92.7595C197.017 92.7622 197.137 92.7555 197.244 92.7526C199.448 92.7002 201.658 92.6487 203.855 92.5925C204.269 92.5819 204.45 92.6216 204.731 92.6417C204.825 92.6491 204.932 92.662 205.019 92.66C206.341 92.6299 207.67 92.5978 208.992 92.5658C209.466 92.5542 209.466 92.5551 210.189 92.611C210.276 92.6183 210.389 92.6256 210.483 92.6236C212.025 92.5877 213.575 92.5508 215.117 92.5139C215.591 92.5023 215.591 92.5023 216.962 92.5491C217.062 92.5527 217.169 92.5582 217.269 92.5562C219.032 92.5144 220.801 92.4736 222.564 92.429C222.918 92.4203 223.212 92.4274 223.467 92.4606C223.648 92.4845 223.835 92.4945 224.055 92.4887C226.038 92.4412 228.029 92.3955 230.005 92.3451C230.386 92.3354 230.633 92.3556 230.901 92.3822C230.988 92.3914 231.075 92.4043 231.175 92.4079C231.276 92.4115 231.389 92.4077 231.496 92.4048C233.479 92.3573 235.469 92.3125 237.446 92.2612C237.846 92.2506 238.061 92.2819 238.328 92.3048C238.422 92.3131 238.523 92.3297 238.603 92.3287C239.377 92.3121 240.152 92.2974 240.92 92.2733C241.334 92.2599 241.515 92.3024 241.796 92.3225C241.89 92.3289 241.997 92.3428 242.084 92.3408C243.74 92.3029 245.396 92.2631 247.045 92.2224C247.279 92.2165 247.453 92.2247 247.64 92.2486C247.888 92.2809 248.175 92.2936 248.536 92.283C249.304 92.2608 250.078 92.2452 250.853 92.2267C251.307 92.216 251.307 92.216 252.698 92.2628C252.798 92.2664 252.905 92.2719 253.005 92.2699C254.327 92.2388 255.656 92.2087 256.971 92.1748C257.325 92.1652 257.62 92.1732 257.874 92.2064C258.055 92.2303 258.235 92.2403 258.462 92.2345C259.678 92.2054 260.887 92.1763 262.102 92.1472C262.543 92.1365 262.983 92.1184 263.424 92.1179C263.745 92.1185 263.979 92.1628 264.267 92.1848C264.347 92.1912 264.481 92.1836 264.588 92.1817C266.13 92.1448 267.679 92.1107 269.215 92.0691C269.616 92.0585 269.83 92.0898 270.098 92.1128C270.192 92.121 270.292 92.1376 270.372 92.1366C270.927 92.1258 271.474 92.1113 272.028 92.0987C272.689 92.0831 273.357 92.0713 274.011 92.0502C274.546 92.0329 274.748 92.1135 275.175 92.1158C275.503 92.1182 275.836 92.1021 276.164 92.0943C276.825 92.0788 277.486 92.0614 278.147 92.0477C278.38 92.0428 278.561 92.0278 278.634 91.9943C278.647 91.9878 278.533 91.974 278.459 91.9657C277.569 91.872 277.569 91.872 276.674 91.8933C276.12 91.9069 275.572 91.9205 275.018 91.9322C274.924 91.9341 274.817 91.9268 274.724 91.9214C274.456 91.9059 274.483 91.8873 274.709 91.8536C274.935 91.82 275.108 91.7789 275.301 91.7407C275.576 91.7645 275.843 91.7884 276.118 91.8122C276.338 91.8073 276.559 91.8015 276.779 91.7967C277.881 91.7714 278.983 91.7452 280.084 91.7217C280.164 91.7198 280.265 91.7383 280.359 91.7474C280.626 91.7741 280.868 91.797 281.255 91.7864C282.243 91.7585 283.238 91.7379 284.226 91.7137C284.66 91.703 284.66 91.703 285.423 91.7598C285.51 91.7662 285.624 91.7735 285.717 91.7715C286.712 91.7491 287.7 91.7249 288.695 91.7016C288.909 91.6967 289.116 91.7085 289.271 91.7353C289.331 91.7464 289.318 91.765 289.575 91.9169C290.366 92.0395 290.907 92.026 291.454 92.0143C291.688 92.0094 291.895 92.0045 292.048 91.9858C292.128 91.9755 292.228 91.9605 292.228 91.9485C292.228 91.9392 292.08 91.9245 291.987 91.9227C291.325 91.9049 290.698 91.9445 290.05 91.9535C289.749 91.9576 289.488 91.9254 289.434 91.8725C289.42 91.8577 289.4 91.8419 289.379 91.8271C289.359 91.8122 289.345 91.7965 289.325 91.7817C289.064 91.7773 288.911 91.7942 288.798 91.8258C288.705 91.8519 288.572 91.8818 288.392 91.8959C288.212 91.9109 287.965 91.9084 287.744 91.9133C287.531 91.9181 287.297 91.9304 287.096 91.9242C286.896 91.9169 286.735 91.8902 286.548 91.8737C286.461 91.8654 286.354 91.8535 286.267 91.8554C285.499 91.872 284.738 91.8886 283.976 91.9098C283.576 91.9213 283.375 91.8826 283.12 91.8587C282.919 91.8404 282.719 91.8452 282.686 91.8879C282.602 91.9901 282.91 92.0325 283.591 92.0123C284.152 91.995 284.659 91.9917 285.102 92.0543C285.162 92.0626 285.302 92.0662 285.389 92.0642C285.937 92.0525 286.477 92.038 287.025 92.0263C287.125 92.0244 287.232 92.028 287.326 92.0316C288.69 92.0803 288.69 92.0812 289.15 92.0696C289.371 92.0638 289.584 92.0589 289.562 91.9178C289.979 91.7661 290.647 91.7552 291.295 91.7322C291.715 91.7179 291.896 91.7585 292.171 91.7796C292.264 91.7869 292.365 91.8017 292.452 91.7997C293.888 91.7676 295.317 91.7336 296.746 91.6978C296.986 91.6919 297.16 91.6973 297.347 91.7213C297.588 91.7516 297.856 91.7708 298.237 91.7593C298.998 91.7362 299.772 91.7215 300.547 91.7021C300.941 91.6924 300.941 91.6924 301.737 91.7491C301.824 91.7555 301.938 91.7628 302.031 91.7609C302.806 91.7443 303.574 91.724 304.342 91.7065C304.555 91.7016 304.749 91.7144 304.917 91.7393C305.084 91.7642 305.285 91.777 305.492 91.7721C306.267 91.7546 307.035 91.7352 307.803 91.7177C307.896 91.7158 308.01 91.7221 308.097 91.7285C308.913 91.7852 308.913 91.7852 309.287 91.7756C309.834 91.7611 310.395 91.754 310.936 91.7348C311.463 91.7157 311.738 91.7693 312.1 91.7986C313.088 91.7762 314.083 91.7575 315.065 91.7305C315.465 91.719 315.68 91.7494 315.947 91.7732C316.041 91.7815 316.135 91.799 316.222 91.798C316.556 91.7939 316.883 91.7834 317.21 91.7756C317.537 91.7678 317.871 91.7601 318.198 91.7523C318.573 91.7788 318.822 91.8417 319.356 91.8198C319.676 91.8064 320.017 91.8033 320.344 91.7955C320.671 91.7877 321.005 91.78 321.332 91.7722C321.552 91.7673 321.779 91.7643 321.993 91.7557C322.387 91.7414 322.582 91.7867 322.863 91.8068C322.956 91.8132 323.063 91.8242 323.15 91.8223C323.811 91.8086 324.479 91.7967 325.127 91.7747C325.627 91.7575 325.969 91.785 326.324 91.8236C326.397 91.8319 326.524 91.8364 326.618 91.8344C327.392 91.8178 328.16 91.7975 328.928 91.78C329.135 91.7751 329.336 91.7898 329.503 91.8137C329.678 91.8386 329.871 91.8505 330.085 91.8456C330.853 91.8281 331.628 91.8087 332.396 91.7912C332.489 91.7893 332.603 91.7966 332.69 91.8039C333.439 91.8607 333.439 91.8616 333.88 91.85C333.987 91.8471 334.1 91.8451 334.207 91.8422C334.755 91.8287 335.322 91.8234 335.856 91.8006C336.471 91.7749 336.919 91.806 337.354 91.8584C337.902 91.8467 338.463 91.8396 338.997 91.8205C339.397 91.8062 339.612 91.8412 339.88 91.8641C339.973 91.8724 340.074 91.889 340.154 91.887C340.928 91.8704 341.703 91.8557 342.464 91.8317C342.878 91.8183 343.059 91.8599 343.34 91.8809C343.434 91.8882 343.535 91.9011 343.621 91.8992C344.062 91.8913 344.503 91.8797 344.944 91.869C345.458 91.8564 345.458 91.8573 346.14 91.9132C346.461 91.9398 346.782 91.9181 347.096 91.9113C347.43 91.9035 347.743 91.8976 348.011 91.9354C348.179 91.9594 348.38 91.974 348.587 91.9701C349.027 91.9613 349.475 91.9524 349.909 91.9381C350.256 91.9266 350.557 91.9337 350.811 91.9678C350.992 91.9917 351.179 92.0036 351.4 91.9978C352.388 91.9745 353.383 91.9502 354.371 91.9278C354.458 91.9259 354.578 91.9341 354.659 91.9424C354.846 91.9589 355.027 91.9772 355.208 91.9956C355.642 91.9868 356.089 91.9826 356.517 91.9692C356.971 91.9557 357.385 91.9506 357.74 92.0013C357.814 92.0124 357.921 92.028 358.007 92.027C358.341 92.023 358.669 92.0133 358.996 92.0056C359.323 91.9978 359.657 91.99 359.984 91.9823C360.365 92.0051 360.607 92.0716 361.141 92.0497C361.462 92.0364 361.802 92.0333 362.13 92.0255C362.457 92.0177 362.791 92.009 363.118 92.0022C363.225 92.0002 363.345 91.9954 363.438 91.9991C363.539 92.0027 363.626 92.0156 363.713 92.0248C363.981 92.0514 364.228 92.0781 364.609 92.0619C364.929 92.0485 365.27 92.0454 365.597 92.0367C366.044 92.026 366.044 92.026 366.787 92.0837C367.088 92.1075 367.428 92.0756 367.716 92.0957C367.91 92.1095 368.078 92.1325 368.265 92.1481C368.345 92.1545 368.472 92.1571 368.566 92.1552C369.006 92.1464 369.454 92.1375 369.888 92.1232C370.242 92.1117 370.536 92.1225 370.784 92.1556C370.965 92.1796 371.145 92.1896 371.372 92.1838C372.474 92.1567 373.576 92.1332 374.671 92.1033C375.045 92.0927 375.346 92.1082 375.553 92.1414C375.909 92.1985 376.408 92.1302 376.777 92.1763C377.004 92.2048 377.232 92.238 377.646 92.2236C378.407 92.1987 379.182 92.1849 379.95 92.1674C380.224 92.1921 380.499 92.2169 380.78 92.2417C381.22 92.231 381.661 92.2203 382.102 92.2106C382.429 92.2028 382.763 92.1941 383.09 92.1873C383.197 92.1853 383.31 92.1815 383.411 92.186C383.511 92.1905 383.592 92.2025 383.685 92.2117C384.147 92.2567 384.147 92.2576 384.908 92.2383C385.235 92.2296 385.549 92.2237 385.824 92.2605C386.079 92.2946 386.379 92.3008 386.726 92.2902C387.381 92.271 388.042 92.2563 388.71 92.2426C388.917 92.2378 389.111 92.2534 389.285 92.2773C389.546 92.3151 389.867 92.311 390.194 92.3005C390.628 92.287 391.055 92.2736 391.424 92.3252C391.497 92.3363 391.611 92.3519 391.692 92.3509C392.239 92.3429 392.794 92.3368 393.328 92.3186C393.862 92.3004 394.123 92.3576 394.491 92.3851C395.039 92.3724 395.593 92.3598 396.141 92.3472C396.248 92.3443 396.374 92.3358 396.468 92.3403C396.863 92.3594 397.091 92.4288 397.632 92.4069C397.946 92.3945 398.286 92.3904 398.613 92.3873C398.7 92.3862 398.814 92.4019 398.875 92.4139C398.908 92.4204 398.875 92.438 398.835 92.4474C398.715 92.4735 398.569 92.4978 398.463 92.5248C398.449 92.5285 398.577 92.5451 398.65 92.5524C398.831 92.569 399.038 92.566 399.278 92.5583C399.485 92.5516 399.699 92.5643 399.847 92.592C399.907 92.6031 399.887 92.6217 399.762 92.6831C399.763 92.7286 399.903 92.708 399.949 92.6782C400.021 92.6355 399.881 92.6217 399.614 92.6452C399.427 92.6621 399.334 92.6863 399.382 92.7058C399.408 92.7159 399.536 92.7288 399.762 92.6831C400.349 92.6268 400.789 92.6161 401.23 92.6054C401.344 92.6025 401.477 92.5931 401.557 92.5986C401.845 92.6206 402.113 92.6472 402.394 92.672C402.714 92.6661 403.015 92.6518 403.329 92.6877C403.771 92.7383 403.791 92.7336 404.219 92.723C404.439 92.7172 404.659 92.7123 404.88 92.7074C405.1 92.7025 405.274 92.7163 405.468 92.7374C405.863 92.7806 405.897 92.7806 406.156 92.7209C406.309 92.6846 406.416 92.6724 406.61 92.6889C407.252 92.7448 407.259 92.7485 407.806 92.7313C408.26 92.7169 408.688 92.7127 409.023 92.7653C409.251 92.8021 409.324 92.7937 409.504 92.7545C409.983 92.651 410.203 92.6526 411.106 92.7259C411.528 92.7608 411.962 92.7223 412.389 92.7172C412.75 92.7131 413.004 92.7351 413.032 92.7935C413.053 92.8297 413.113 92.8556 413.354 92.8675C413.448 92.872 413.561 92.8784 413.655 92.8764C414.209 92.8647 414.757 92.8511 415.311 92.8376C415.591 92.8308 415.744 92.787 415.69 92.7295C415.628 92.6683 415.735 92.6459 416.135 92.6278C416.375 92.6174 416.569 92.619 416.763 92.6355C416.977 92.6539 416.918 92.6707 416.731 92.7043C416.285 92.7864 416.34 92.8365 416.915 92.8925C417.116 92.9118 417.277 92.9292 417.324 92.958C417.351 92.9728 417.325 92.9923 417.385 93.0034C417.714 93.0652 418.169 93.1047 418.677 93.1338C419.164 93.1083 419.499 93.1497 419.874 93.1827C420.169 93.2084 420.515 93.1857 420.829 93.1761C421.183 93.1656 421.477 93.1727 421.732 93.2067C421.913 93.2307 422.1 93.2416 422.32 93.2368C422.761 93.2261 423.208 93.2191 423.642 93.2038C424.016 93.1904 424.297 93.2087 424.532 93.24C424.826 93.2796 425.153 93.2523 425.461 93.2576C425.875 93.2637 426.084 93.346 426.625 93.3232C426.945 93.3099 427.279 93.3049 427.613 93.3008C427.7 93.2998 427.807 93.3155 427.88 93.3265C428.236 93.3772 428.65 93.374 429.104 93.3587C429.418 93.3481 429.725 93.3385 430.033 93.3735C430.542 93.4323 431.104 93.4837 431.639 93.5379C431.714 93.5805 431.661 93.6307 432.042 93.6554C432.243 93.6682 432.431 93.6875 432.585 93.7087C432.772 93.7335 432.946 93.7398 433.186 93.7331C433.62 93.7196 434.075 93.7164 434.502 93.6992C434.896 93.6839 435.144 93.7143 435.385 93.7428C435.579 93.7658 435.76 93.7768 435.993 93.7598C436.233 93.7438 436.407 93.7538 436.601 93.7787C436.876 93.8127 436.896 93.809 437.805 93.8183C437.898 93.8191 438.012 93.8329 438.066 93.8449C438.092 93.8514 438.033 93.87 437.986 93.8793C437.926 93.8905 437.833 93.9036 437.746 93.9065C436.758 93.9317 435.763 93.9541 434.775 93.9792C434.675 93.9821 434.568 93.9887 434.495 93.9981C434.415 94.0084 434.315 94.0224 434.315 94.0354C434.315 94.0447 434.449 94.0557 434.543 94.0621C434.837 94.0831 435.184 94.0503 435.472 94.0741C435.666 94.0897 435.826 94.1118 436.02 94.1264C436.101 94.1329 436.228 94.1318 436.328 94.1298C436.662 94.123 436.989 94.1134 437.323 94.1074C437.416 94.1064 437.523 94.1156 437.61 94.1229C438.253 94.1779 438.253 94.1779 438.807 94.1653C439.027 94.1604 439.261 94.1463 439.468 94.1516C439.669 94.157 439.843 94.1818 440.024 94.1974C440.398 94.2305 440.753 94.2626 440.781 94.3349C440.795 94.3628 441.016 94.3867 441.237 94.3883C441.45 94.3899 441.677 94.3795 441.898 94.3737C442.418 94.362 442.419 94.362 443.094 94.4179C443.282 94.4335 443.482 94.4351 443.723 94.4256C443.816 94.4218 443.93 94.4254 444.03 94.4299C444.358 94.4435 444.358 94.4611 444.145 94.4948C443.845 94.5443 443.872 94.5489 444.715 94.5898C445.036 94.6052 445.283 94.6347 445.551 94.6604C445.986 94.7017 445.98 94.7017 445.693 94.7568C445.627 94.7689 445.567 94.7819 445.5 94.795C445.307 94.8314 445.154 94.8706 444.754 94.8747C444.313 94.8789 443.872 94.8942 443.432 94.9049C443.004 94.9155 442.891 94.9379 442.932 95.001C442.981 95.077 443.068 95.0853 443.836 95.0836C444.057 95.0833 444.25 95.0906 444.418 95.1154C444.338 95.1452 444.192 95.1686 443.978 95.1744C443.431 95.1889 442.876 95.2015 442.329 95.2142C441.888 95.2248 441.447 95.2355 441.007 95.2462C440.733 95.253 440.56 95.3014 440.635 95.3552C440.675 95.3858 440.709 95.4164 440.743 95.447C440.818 95.5081 440.959 95.5238 441.406 95.5205C441.52 95.5195 441.627 95.5119 441.734 95.5137C442.168 95.5197 442.377 95.5965 442.897 95.5802C443.331 95.5668 443.786 95.5635 444.213 95.5463C444.607 95.5311 444.828 95.5643 445.102 95.589C445.196 95.5973 445.297 95.6148 445.377 95.6138C445.931 95.603 446.485 95.5922 447.026 95.574C447.28 95.5663 447.433 95.5717 447.634 95.5938C448.116 95.6471 448.13 95.6443 448.844 95.6269C449.365 95.6133 449.372 95.6152 450.041 95.6711C450.228 95.6867 450.429 95.6865 450.669 95.6788C450.983 95.6692 451.31 95.654 451.637 95.6676C451.738 95.6712 451.865 95.6822 451.899 95.6942C451.919 95.7026 451.826 95.7231 451.746 95.7297C451.159 95.7785 450.47 95.7709 449.83 95.7911C449.629 95.7969 449.428 95.7794 449.261 95.7545C449.087 95.7297 448.899 95.7197 448.672 95.7245C448.232 95.7352 447.784 95.7422 447.35 95.7575C446.976 95.7709 446.715 95.7498 446.454 95.7213C446.367 95.7121 446.267 95.6946 446.18 95.6956C445.192 95.7152 444.197 95.7348 443.215 95.7618C442.821 95.7734 442.593 95.7439 442.326 95.7191C442.232 95.7109 442.138 95.6933 442.051 95.6943C441.717 95.6984 441.39 95.709 441.056 95.7167C439.841 95.7459 438.632 95.775 437.417 95.8022C437.337 95.8042 437.236 95.7848 437.143 95.7765C436.962 95.76 436.774 95.7444 436.587 95.7288C436.253 95.7366 435.926 95.7462 435.592 95.7522C435.352 95.7561 435.138 95.7694 435.105 95.8047C435.086 95.8279 435.307 95.849 435.541 95.8469C435.768 95.8448 435.995 95.8334 436.182 95.8453C437.112 95.9037 437.112 95.9047 437.693 95.892C438.2 95.8803 438.147 95.8711 438.595 95.9217C438.789 95.9437 438.963 95.9566 439.184 95.9508C439.731 95.9372 440.285 95.9236 440.84 95.9119C440.927 95.9099 441.04 95.9191 441.127 95.9264C441.783 95.9814 441.783 95.9833 442.324 95.9688C443.032 95.9514 443.058 95.9467 443.534 96.0028C443.862 96.0414 444.162 96.0142 444.476 96.012C444.838 96.0478 445.232 96.0799 445.561 96.1204C445.949 96.1683 446.356 96.1595 446.797 96.1451C447.124 96.1346 447.445 96.1305 447.713 96.1683C447.967 96.2033 448.275 96.2067 448.622 96.197C448.936 96.1884 449.256 96.1704 449.584 96.1905C449.671 96.1959 449.805 96.2097 449.798 96.2181C449.792 96.2311 449.705 96.2497 449.618 96.2554C449.005 96.2941 448.33 96.2939 447.682 96.3122C447.595 96.3151 447.482 96.305 447.395 96.2976C447.207 96.2811 447.026 96.2618 446.846 96.2444C446.518 96.2503 446.185 96.2525 445.864 96.264C445.617 96.2726 445.43 96.2719 445.249 96.2498C445.082 96.2295 444.901 96.2046 444.7 96.1984C444.5 96.1921 444.266 96.2062 444.046 96.212C443.826 96.2178 443.572 96.2153 443.398 96.2304C443.225 96.2454 443.119 96.278 443.006 96.3041C442.879 96.333 442.706 96.3425 442.452 96.3455C442.218 96.3486 442.031 96.345 441.857 96.3192C441.783 96.3082 441.683 96.2999 441.582 96.2926C441.489 96.2862 441.381 96.2761 441.295 96.278C440.3 96.3004 439.311 96.3247 438.317 96.348C437.822 96.3597 437.829 96.3596 436.799 96.306C436.706 96.3014 436.592 96.295 436.498 96.297C435.944 96.3087 435.397 96.3223 434.842 96.3359C434.281 96.3495 434.288 96.3476 433.332 96.2901C433.158 96.2792 432.904 96.2943 432.697 96.2926C432.263 96.2885 432.047 96.2107 431.54 96.2261C431.106 96.2395 430.652 96.2428 430.218 96.26C429.824 96.2752 429.596 96.243 429.328 96.2182C429.235 96.21 429.134 96.1915 429.054 96.1934C428.059 96.2149 427.071 96.2391 425.748 96.2433C425.421 96.2437 425.568 96.263 425.782 96.2693C426.089 96.2792 426.189 96.2596 426.022 96.2226C425.901 96.1967 425.727 96.1839 425.587 96.1906C425.513 96.1944 425.42 96.2121 425.748 96.2433C426.096 96.2782 426.076 96.2977 426.137 96.3088C426.284 96.3356 426.492 96.3465 426.705 96.3425C427.039 96.3357 427.366 96.3261 427.7 96.3202C427.794 96.3182 427.908 96.3246 427.995 96.3319C428.731 96.3887 428.737 96.3924 429.519 96.3693C429.766 96.3625 429.946 96.3624 430.14 96.3798C430.408 96.4036 430.602 96.4443 431.01 96.4309C431.55 96.4126 432.105 96.4019 432.659 96.3911C432.746 96.3891 432.839 96.4057 432.94 96.4131C433.214 96.435 433.415 96.4766 433.823 96.4585C434.136 96.4443 434.477 96.4402 434.811 96.4371C434.898 96.4361 435.032 96.4508 435.072 96.4628C435.153 96.4841 435.053 96.5092 434.826 96.5271C434.733 96.5346 434.606 96.5329 434.499 96.5358C434.058 96.5465 433.618 96.5581 433.177 96.5669C432.943 96.5718 432.723 96.5859 432.697 96.6203C432.677 96.6435 432.918 96.6637 433.145 96.6616C433.479 96.6585 433.813 96.6507 434.134 96.6383C434.701 96.6173 435.195 96.6223 435.658 96.6803C435.986 96.7208 435.965 96.706 436.315 96.8263C436.403 96.8568 436.663 96.8593 436.89 96.8572C437.438 96.852 437.692 96.8657 437.646 96.8945C437.587 96.9298 437.393 96.9412 437.146 96.9461C436.705 96.9539 436.265 96.9665 435.824 96.9772C435.717 96.9801 435.597 96.9857 435.497 96.984C435.396 96.9822 435.303 96.9712 435.216 96.9629C435.028 96.9455 434.867 96.9187 434.667 96.9125C434.466 96.9062 434.233 96.9203 434.012 96.9261C433.792 96.931 433.559 96.9452 433.358 96.9389C433.157 96.9326 432.99 96.9049 432.809 96.8884C432.722 96.8802 432.615 96.8673 432.528 96.8683C432.087 96.8762 431.647 96.8887 431.206 96.8985C430.665 96.9111 430.665 96.9111 430.009 96.8542C429.822 96.8377 429.628 96.8389 429.381 96.8465C428.847 96.862 428.84 96.8592 427.864 96.8064C427.77 96.8009 427.656 96.7945 427.563 96.7974C426.568 96.8198 425.58 96.844 424.591 96.8673C423.743 96.8877 423.743 96.8877 423.278 96.981C422.932 97.0501 422.925 97.0501 423.266 97.0813C423.541 97.107 423.789 97.1448 424.09 97.1584C424.37 97.1711 424.717 97.129 425.025 97.1713C425.179 97.1925 425.38 97.2155 425.574 97.219C425.881 97.2234 426.208 97.1961 426.503 97.2366C426.65 97.2569 426.871 97.278 427.058 97.2787C427.386 97.2803 427.719 97.265 428.047 97.2582C428.147 97.2562 428.26 97.2561 428.354 97.2607C428.454 97.2661 428.541 97.2772 428.628 97.2864C428.896 97.3176 429.184 97.3322 429.531 97.3161C430.098 97.2895 430.606 97.3019 431.048 97.3609C431.109 97.3692 431.256 97.3699 431.349 97.3661C431.589 97.3566 431.796 97.3554 431.977 97.3729C432.051 97.3802 432.158 97.3931 432.145 97.4015C432.125 97.4154 432.045 97.4341 431.958 97.4388C431.331 97.471 430.656 97.4755 430.009 97.4928C429.922 97.4948 429.815 97.4828 429.728 97.4746C429.54 97.4581 429.38 97.4304 429.179 97.4241C428.978 97.4178 428.745 97.4301 428.525 97.435C428.304 97.4399 428.071 97.454 427.87 97.4487C427.67 97.4424 427.482 97.4194 427.321 97.3991C427.134 97.3761 426.953 97.3735 426.706 97.3831C426.386 97.3955 426.052 97.3977 425.725 97.4045C425.544 97.3871 425.363 97.3678 425.176 97.3512C425.089 97.343 424.982 97.3329 424.888 97.3339C424.447 97.3418 424.007 97.3534 423.566 97.3641C423.125 97.3747 423.125 97.3748 422.376 97.318C422.289 97.3116 422.175 97.3043 422.082 97.3062C421.527 97.318 420.98 97.3324 420.426 97.3442C420.212 97.349 420.018 97.3362 419.844 97.3114C419.676 97.2865 419.476 97.2728 419.268 97.2776C418.387 97.298 417.506 97.3175 416.624 97.3417C416.27 97.3513 415.97 97.3433 415.728 97.3101C415.447 97.2724 415.133 97.282 414.806 97.2897C414.065 97.3091 414.058 97.3082 413.583 97.2613C413.489 97.2521 413.395 97.2346 413.309 97.2356C412.541 97.2503 411.766 97.2641 411.005 97.2872C410.604 97.2997 410.39 97.2674 410.122 97.2436C410.028 97.2353 409.928 97.2178 409.848 97.2197C409.293 97.2305 408.739 97.2404 408.198 97.2595C407.657 97.2787 407.449 97.1926 407.041 97.1939C406.487 97.1954 405.939 97.2174 405.392 97.2309C404.951 97.2416 404.51 97.2523 404.07 97.2629C403.629 97.2736 403.188 97.2824 402.747 97.295C402.514 97.3017 402.34 97.2935 402.146 97.2705C401.898 97.2402 401.604 97.2163 401.336 97.1888C400.927 97.1493 400.927 97.1493 400.433 97.1609C400.326 97.1638 400.213 97.1658 400.106 97.1687C399.298 97.19 399.298 97.1881 398.268 97.1307C398.221 97.128 398.101 97.1383 398.055 97.1458C397.915 97.1701 397.788 97.1962 397.662 97.2214C397.481 97.2067 397.261 97.1986 397.14 97.1774C396.798 97.1174 396.265 97.2006 395.917 97.1415C395.789 97.1194 395.568 97.1001 395.368 97.0948C395.161 97.0894 394.927 97.1027 394.713 97.1085C394.159 97.123 394.159 97.122 393.687 97.2052C393.447 97.2462 393.099 97.2392 392.786 97.2488C392.459 97.2593 392.145 97.2652 391.87 97.2275C391.622 97.1934 391.321 97.1854 390.967 97.1969C390.534 97.2112 390.086 97.2201 389.645 97.2289C389.552 97.2308 389.438 97.2263 389.344 97.2208C388.321 97.1672 388.321 97.1662 387.827 97.1788C387.607 97.1846 387.38 97.1867 387.166 97.1953C386.806 97.2105 386.531 97.1913 386.27 97.1619C386.183 97.1527 386.083 97.1352 385.996 97.1362C385.555 97.1413 385.121 97.1501 384.687 97.1589C384.353 97.1658 384.019 97.1698 383.699 97.1831C383.165 97.2051 382.903 97.145 382.535 97.1175C381.987 97.1302 381.433 97.1391 380.885 97.1564C380.632 97.1641 380.465 97.1615 380.271 97.1394C380.023 97.1118 379.795 97.0805 379.394 97.0948C378.86 97.114 378.299 97.1211 377.752 97.1328C377.384 97.1044 377.115 97.0462 376.588 97.0681C376.268 97.0814 375.927 97.0846 375.6 97.0923C375.159 97.103 374.718 97.1127 374.278 97.1243C373.804 97.136 373.81 97.1332 373.081 97.0792C372.659 97.0471 372.226 97.0838 371.798 97.0898C371.464 97.0948 371.298 97.1377 371.38 97.1924C371.461 97.247 371.281 97.2899 370.974 97.2977C370.206 97.3161 369.432 97.3355 368.664 97.3521C368.57 97.354 368.457 97.3476 368.37 97.3412C367.547 97.2836 367.547 97.2846 367.179 97.2933C366.632 97.3078 366.071 97.3158 365.53 97.334C365.156 97.3465 364.882 97.3273 364.641 97.296C364.453 97.272 364.279 97.2666 364.039 97.2725C361.395 97.3374 358.75 97.3977 356.113 97.4646C355.719 97.4743 355.491 97.4476 355.224 97.4228C355.13 97.4145 355.043 97.397 354.949 97.3971C354.729 97.3973 354.508 97.4059 354.288 97.4117C353.3 97.435 352.312 97.463 351.316 97.4807C350.896 97.4886 350.783 97.5314 350.603 97.5669C350.464 97.5939 350.304 97.6052 350.056 97.6092C349.816 97.6132 349.642 97.6087 349.455 97.5848C349.213 97.5535 348.939 97.5343 348.565 97.5477C348.132 97.563 347.691 97.5699 347.243 97.5806C347.016 97.5855 346.843 97.6024 346.77 97.6359C346.757 97.6414 346.897 97.6552 346.978 97.6635C347.245 97.6911 347.5 97.7233 347.801 97.7425C348.109 97.7616 348.442 97.739 348.763 97.7331C348.876 97.7311 348.983 97.7254 349.09 97.7263C349.19 97.7271 349.311 97.7316 349.384 97.7399C349.733 97.7813 350.1 97.8097 350.581 97.7841C350.995 97.7957 351.211 97.8725 351.738 97.8516C352.059 97.8392 352.393 97.8332 352.726 97.8283C352.813 97.8272 352.907 97.8438 353.001 97.8521C353.269 97.875 353.483 97.9119 353.884 97.8957C354.311 97.8786 354.765 97.8753 355.199 97.8619C355.439 97.8542 355.613 97.8605 355.801 97.8844C356.042 97.9148 356.316 97.9377 356.69 97.9225C357.01 97.9091 357.351 97.906 357.678 97.8973C358.106 97.8866 358.106 97.8876 358.868 97.9443C358.955 97.9507 359.069 97.958 359.163 97.9561C359.717 97.9444 360.264 97.9299 360.819 97.9181C361.032 97.9133 361.24 97.9251 361.387 97.9519C361.447 97.963 361.428 97.9816 361.448 97.9973C360.346 98.0235 359.244 98.046 358.149 98.0778C357.736 98.0903 357.548 98.0525 357.273 98.0314C357.18 98.0241 357.079 98.0084 356.992 98.0103C356.218 98.0269 355.45 98.0444 354.682 98.0657C354.442 98.0724 354.261 98.0689 354.08 98.0422C353.618 97.9712 353.057 98.0108 352.537 98.0215C352.136 98.0294 352.01 98.0583 352.058 98.1195C352.119 98.1918 352.36 98.2138 352.974 98.2002C353.195 98.1953 353.415 98.1886 353.635 98.1847C353.849 98.1807 354.043 98.1926 354.217 98.2175C354.385 98.2423 354.586 98.2551 354.793 98.2512C355.233 98.2424 355.681 98.2336 356.108 98.2192C356.462 98.2077 356.756 98.2167 357.004 98.2507C357.279 98.2885 357.599 98.2798 357.92 98.2711C358.667 98.2518 358.674 98.2527 359.143 98.2986C359.236 98.3078 359.33 98.3253 359.417 98.3243C360.185 98.3096 360.96 98.2967 361.714 98.2736C362.108 98.2621 362.336 98.2916 362.597 98.3154C362.691 98.3237 362.785 98.3421 362.871 98.3402C363.426 98.3294 363.98 98.3186 364.521 98.3004C364.774 98.2918 364.928 98.2972 365.136 98.3192C365.631 98.3735 365.644 98.3716 366.346 98.3532C366.559 98.3474 366.793 98.337 366.993 98.3442C367.194 98.3514 367.355 98.3782 367.542 98.3947C367.629 98.402 367.736 98.4121 367.83 98.4102C368.271 98.4023 368.711 98.3907 369.152 98.38C369.566 98.3694 369.566 98.3703 370.342 98.427C370.657 98.4508 370.984 98.4301 371.297 98.4223C371.638 98.4136 371.945 98.4133 372.207 98.4492C372.468 98.4851 372.782 98.4829 373.116 98.4752C373.43 98.4674 373.75 98.4467 374.071 98.4714C374.807 98.5282 374.807 98.5291 375.261 98.5175C375.922 98.501 376.576 98.4855 377.244 98.4708C377.331 98.4689 377.445 98.4799 377.532 98.4872C377.719 98.5037 377.88 98.5314 378.081 98.5377C378.281 98.5449 378.515 98.5335 378.728 98.5277C379.416 98.5094 379.463 98.5028 379.925 98.5636C380.314 98.6133 380.793 98.5404 381.155 98.5976C381.363 98.6299 381.644 98.6556 382.031 98.6394C382.351 98.626 382.685 98.622 383.019 98.6142C383.547 98.6016 383.547 98.6025 384.216 98.6575C384.303 98.6648 384.417 98.674 384.503 98.6721C384.944 98.6642 385.392 98.6572 385.819 98.64C386.32 98.62 386.641 98.655 387.016 98.6889C387.31 98.7155 387.657 98.6929 387.971 98.6833C388.312 98.6736 388.619 98.6761 388.873 98.712C389.141 98.7489 389.455 98.7439 389.789 98.7361C390.103 98.7293 390.423 98.7076 390.744 98.7333C391.434 98.7901 391.434 98.7901 391.935 98.7784C392.375 98.7678 392.816 98.7562 393.257 98.7483C393.344 98.7463 393.451 98.7583 393.538 98.7665C393.725 98.783 393.886 98.8107 394.087 98.817C394.287 98.8233 394.521 98.811 394.741 98.8061C394.961 98.8012 395.195 98.7871 395.395 98.7924C395.596 98.7978 395.784 98.8208 395.944 98.8411C396.132 98.865 396.306 98.8676 396.559 98.858C396.88 98.8456 397.214 98.8425 397.541 98.8357C397.722 98.8531 397.909 98.8705 398.083 98.8899C398.264 98.9101 398.457 98.908 398.705 98.9013C399.526 98.8781 399.533 98.8809 400.222 98.9377C400.536 98.9634 400.863 98.9417 401.177 98.9349C401.511 98.9271 401.825 98.9231 402.086 98.9599C402.341 98.9949 402.655 98.9992 402.989 98.9877C403.202 98.9801 403.429 98.9752 403.65 98.9722C403.75 98.9712 403.87 98.9748 403.944 98.9821C404.299 99.0207 404.647 99.0556 405.134 99.0301C405.562 99.037 405.777 99.1129 406.291 99.0975C406.725 99.0841 407.179 99.0808 407.607 99.0636C408 99.0484 408.282 99.0741 408.483 99.1064C408.845 99.1635 409.351 99.085 409.713 99.1413C409.92 99.1735 410.188 99.1992 410.589 99.1849C411.029 99.1696 411.17 99.1889 411.298 99.2473C411.372 99.2806 411.359 99.3075 411.226 99.3337C411.093 99.3607 410.946 99.3562 410.732 99.3258C410.484 99.2918 410.19 99.2856 409.836 99.2934C409.489 99.3011 409.274 99.2531 408.986 99.2349C408.699 99.2157 408.359 99.2485 408.058 99.2238C407.348 99.166 407.348 99.166 406.867 99.1777C406.54 99.1854 406.2 99.1895 405.879 99.2028C405.499 99.219 405.251 99.1905 404.99 99.1648C404.896 99.1556 404.802 99.1381 404.722 99.1391C403.954 99.1538 403.179 99.1676 402.418 99.1916C402.018 99.2041 401.803 99.1709 401.536 99.148C401.442 99.1397 401.341 99.1231 401.261 99.1251C400.6 99.1388 399.946 99.1562 399.285 99.1726C399.158 99.1978 399.018 99.2221 398.899 99.2491C398.772 99.2771 398.599 99.2894 398.345 99.2887C397.924 99.2892 397.511 99.3286 397.089 99.2798C396.654 99.2302 396.62 99.233 396.2 99.2455C395.666 99.2618 395.098 99.2587 394.597 99.2954C394.511 99.302 394.417 99.3197 394.418 99.3327C394.411 99.3411 394.552 99.353 394.639 99.3604C394.933 99.3823 395.273 99.3495 395.567 99.3724C395.761 99.387 395.922 99.4091 396.116 99.4247C396.197 99.4311 396.317 99.4301 396.424 99.429C396.537 99.428 396.644 99.4214 396.751 99.4222C396.851 99.423 396.958 99.4285 397.039 99.4367C397.407 99.4716 397.795 99.5037 398.123 99.5451C398.444 99.5856 398.745 99.5575 399.065 99.5553C400.349 99.6189 400.349 99.6198 401.211 99.5985C401.424 99.5936 401.645 99.5878 401.865 99.5885C401.959 99.5884 402.046 99.6051 402.14 99.6142C402.407 99.6418 402.662 99.6666 403.036 99.6514C403.356 99.638 403.697 99.6349 404.024 99.6262C404.464 99.6155 404.464 99.6155 405.214 99.6732C405.401 99.6879 405.602 99.6858 405.842 99.6781C406.049 99.6714 406.263 99.6851 406.41 99.7119C406.471 99.7229 406.451 99.7415 406.471 99.7573C405.81 99.7728 405.143 99.7837 404.502 99.8067C404.088 99.821 403.9 99.7813 403.626 99.7603C403.532 99.7529 403.431 99.7373 403.345 99.7392C402.69 99.7538 402.036 99.7703 401.382 99.7895C401.301 99.7915 401.202 99.8129 401.195 99.8259C401.182 99.8501 401.35 99.8731 401.59 99.8719C401.911 99.8707 402.225 99.8545 402.513 99.8923C402.754 99.9255 403.055 99.94 403.408 99.9248C403.622 99.9162 403.849 99.916 404.063 99.9083C404.63 99.8854 405.145 99.8895 405.573 99.9522C405.901 99.9686 406.222 99.9525 406.535 99.9438C406.769 99.937 406.996 99.9303 407.163 99.9478C407.518 99.9845 407.866 100.021 408.354 99.9957C408.882 100.021 409.284 100.075 409.726 100.12C409.933 100.141 410.094 100.153 410.334 100.138C410.434 100.133 410.554 100.133 410.661 100.13C410.881 100.125 411.115 100.111 411.316 100.116C411.516 100.122 411.684 100.149 411.864 100.166C411.951 100.174 412.052 100.188 412.139 100.187C412.473 100.182 412.8 100.172 413.127 100.164C413.454 100.157 413.781 100.151 414.109 100.144C414.383 100.168 414.664 100.191 414.938 100.215C415.379 100.205 415.82 100.194 416.254 100.184C416.741 100.173 416.741 100.173 417.444 100.23C417.758 100.256 418.092 100.239 418.393 100.227C418.893 100.206 419.228 100.241 419.583 100.278C419.657 100.286 419.79 100.29 419.877 100.286C420.224 100.273 420.525 100.283 420.779 100.317C420.96 100.341 421.141 100.352 421.361 100.347C422.129 100.328 422.897 100.309 423.665 100.292C423.759 100.29 423.866 100.299 423.953 100.306C424.635 100.362 424.642 100.365 425.143 100.349C425.59 100.336 426.004 100.33 426.359 100.381C426.433 100.392 426.547 100.407 426.627 100.406C427.174 100.396 427.729 100.386 428.27 100.369C428.517 100.362 428.69 100.364 428.885 100.385C429.132 100.412 429.353 100.444 429.761 100.432C430.889 100.396 430.896 100.402 432.233 100.464C432.327 100.469 432.454 100.461 432.56 100.458C432.787 100.448 432.955 100.461 433.155 100.482C433.604 100.53 433.617 100.527 434.045 100.516C434.372 100.508 434.713 100.505 435.033 100.491C435.527 100.47 435.855 100.506 436.223 100.54C436.518 100.567 436.858 100.544 437.172 100.535C437.512 100.526 437.82 100.528 438.074 100.563C438.248 100.587 438.436 100.6 438.656 100.595C439.424 100.578 440.192 100.558 440.96 100.541C441.053 100.539 441.167 100.546 441.254 100.552C442.017 100.609 442.017 100.612 442.771 100.59C443.012 100.583 443.212 100.581 443.393 100.6C443.567 100.619 443.754 100.636 443.935 100.654C444.262 100.647 444.596 100.645 444.917 100.633C445.164 100.624 445.337 100.628 445.531 100.647C445.786 100.672 446 100.715 446.401 100.694C446.608 100.683 446.848 100.686 447.055 100.676C447.302 100.664 447.469 100.671 447.664 100.695C447.905 100.724 448.152 100.753 448.54 100.738C448.967 100.721 449.421 100.717 449.855 100.704C450.095 100.696 450.263 100.704 450.457 100.728C450.698 100.758 450.972 100.777 451.346 100.765C452.107 100.741 452.114 100.745 452.857 100.803C453.044 100.818 453.244 100.816 453.485 100.808C453.692 100.801 453.906 100.815 454.053 100.842C454.194 100.871 454.181 100.89 454.195 100.906ZM394.496 92.5967C394.275 92.6016 394.055 92.6074 393.733 92.527C393.712 92.5131 393.725 92.4964 393.678 92.4843C393.571 92.4594 393.404 92.4419 393.203 92.4394C392.842 92.436 392.409 92.468 392.416 92.4922C392.423 92.5126 392.537 92.5301 392.758 92.5466C392.851 92.553 392.925 92.564 393.012 92.5714C393.266 92.5924 393.468 92.634 393.835 92.6123C393.801 92.5835 393.767 92.5548 393.835 92.6123C393.802 92.6476 393.903 92.6725 394.143 92.6825C394.21 92.6852 394.31 92.6832 394.364 92.6776C394.57 92.657 394.603 92.6291 394.448 92.5559C394.422 92.568 394.442 92.5893 394.502 92.5949C394.563 92.6004 394.709 92.5956 394.783 92.589C394.969 92.5712 395.063 92.5479 395.015 92.5284C394.989 92.5182 394.861 92.5054 394.781 92.5055C394.641 92.5056 394.514 92.5262 394.496 92.5967ZM448.732 103.304C448.244 103.322 447.683 103.316 447.196 103.353C447.109 103.36 447.023 103.376 447.016 103.389C447.01 103.398 447.144 103.41 447.224 103.416C447.405 103.431 447.605 103.426 447.839 103.421C448.193 103.414 448.401 103.457 448.675 103.478C448.762 103.484 448.876 103.489 448.969 103.487C449.51 103.475 450.044 103.462 450.585 103.449C450.678 103.446 450.779 103.439 450.859 103.431C451.125 103.404 451.098 103.386 450.837 103.366C450.55 103.344 450.322 103.307 450.027 103.29C449.606 103.265 449.179 103.299 448.732 103.304ZM410.806 104.022C410.479 104.029 410.159 104.037 409.831 104.045C409.725 104.048 409.611 104.049 409.511 104.053C409.304 104.059 409.151 104.079 409.051 104.11C409.205 104.134 409.393 104.147 409.6 104.144C409.927 104.138 410.247 104.126 410.575 104.123C410.929 104.119 411.136 104.16 411.411 104.181C411.498 104.188 411.605 104.189 411.705 104.19C412.199 104.193 412.499 104.144 412.404 104.076C412.336 104.024 412.082 103.992 411.775 103.999C411.454 104.006 411.127 104.014 410.806 104.022ZM450.989 101.93C451.069 101.914 451.155 101.903 451.195 101.889C451.314 101.841 451.267 101.806 451.046 101.769C450.777 101.724 450.451 101.755 450.15 101.76C450.077 101.761 449.997 101.781 449.957 101.793C449.931 101.801 449.931 101.819 449.971 101.823C450.299 101.86 450.647 101.894 450.989 101.93ZM392.98 99.2489C392.659 99.2566 392.332 99.2625 392.011 99.2731C391.931 99.276 391.858 99.2937 391.812 99.3058C391.725 99.3281 391.819 99.3587 392.093 99.3612C392.407 99.3646 392.734 99.3484 393.062 99.3407C393.476 99.3309 393.722 99.2963 393.568 99.2668C393.42 99.2382 393.22 99.2328 392.98 99.2489ZM41.2813 97.6343C41.495 97.6295 41.7154 97.6255 41.929 97.6188C42.1293 97.6121 42.2827 97.5915 42.3823 97.5608C42.2148 97.5368 42.0274 97.524 41.8204 97.527C41.4931 97.5329 41.1726 97.5407 40.8522 97.5503C40.6518 97.5561 40.4586 97.5767 40.4125 97.6083C40.3662 97.6325 40.8139 97.6459 41.2813 97.6343ZM364.685 97.152C364.772 97.1603 364.859 97.1769 364.946 97.1768C365.159 97.1766 365.38 97.1708 365.58 97.1613C365.667 97.1575 365.733 97.1407 365.773 97.1277C365.8 97.1193 365.793 97.1045 365.753 97.0971C365.558 97.0527 364.783 97.0693 364.657 97.1205C364.644 97.1298 364.678 97.1418 364.685 97.152ZM343.505 92.0914C343.525 92.1063 343.532 92.1211 343.559 92.1359C343.613 92.1637 343.761 92.184 343.975 92.1977C344.141 92.1743 344.228 92.1482 344.22 92.1204C344.213 92.1056 344.193 92.0907 344.166 92.0759C344.112 92.0481 343.965 92.0278 343.751 92.0141C343.584 92.0366 343.504 92.0627 343.505 92.0914ZM466.472 104.125C466.412 104.137 466.352 104.149 466.286 104.16C466.467 104.187 466.634 104.195 466.76 104.18C466.84 104.171 466.887 104.157 466.947 104.145C466.766 104.118 466.605 104.111 466.472 104.125ZM462.319 104.255C462.406 104.263 462.487 104.275 462.58 104.28C462.734 104.289 462.874 104.273 462.98 104.24C462.893 104.231 462.813 104.22 462.719 104.215C462.566 104.206 462.425 104.222 462.319 104.255ZM464.948 104.083C464.902 104.105 464.996 104.123 465.243 104.139C465.303 104.127 465.383 104.116 465.423 104.103C465.489 104.081 465.375 104.062 465.134 104.047C465.068 104.058 465.008 104.07 464.948 104.083ZM450.825 103.097C450.779 103.119 450.873 103.138 451.12 103.153C451.18 103.141 451.26 103.13 451.3 103.117C451.366 103.095 451.252 103.076 451.012 103.061C450.945 103.073 450.885 103.085 450.825 103.097ZM431.48 96.5492C431.42 96.5613 431.36 96.5734 431.293 96.5846C431.474 96.6114 431.641 96.6195 431.768 96.6046C431.848 96.5952 431.894 96.5812 431.954 96.5691C431.773 96.5424 431.613 96.5351 431.48 96.5492ZM413.004 93.0841C413.165 93.0904 413.298 93.0773 413.411 93.0428C413.324 93.0346 413.244 93.0235 413.15 93.018C412.996 93.0089 412.856 93.0248 412.75 93.0584C412.837 93.0676 412.924 93.0758 413.004 93.0841ZM403.226 92.8762C403.166 92.8884 403.107 92.9005 403.04 92.9117C403.221 92.9384 403.388 92.9466 403.515 92.9316C403.595 92.9222 403.641 92.9083 403.701 92.8961C403.52 92.8694 403.36 92.8631 403.226 92.8762ZM336.931 92.0974C336.872 92.1095 336.812 92.1217 336.745 92.1329C336.926 92.1596 337.093 92.1678 337.22 92.1528C337.3 92.1434 337.346 92.1295 337.406 92.1173C337.225 92.0906 337.065 92.0843 336.931 92.0974ZM7.07024 99.9953C6.98322 99.9871 6.89628 99.9788 6.81593 99.9696C6.6227 99.9949 6.56306 100.018 6.6703 100.036C6.73734 100.047 6.8376 100.053 6.92461 100.061C7.12452 100.036 7.17082 100.014 7.07024 99.9953Z" fill="#FFE492"/>
<path d="M239.065 74.5608C238.298 74.5793 237.536 74.6023 236.768 74.6143C236.361 74.6203 236.215 74.6603 236.049 74.6976C235.916 74.7275 235.762 74.7369 235.515 74.7428C233.432 74.7904 231.355 74.8408 229.278 74.8903C229.017 74.8785 228.89 74.8592 228.95 74.8359C228.983 74.8219 229.063 74.8024 229.143 74.8004C230.565 74.7646 231.981 74.7279 233.41 74.6994C233.817 74.6916 233.93 74.6506 234.136 74.617C234.203 74.6058 234.256 74.589 234.343 74.5824C234.429 74.5749 234.556 74.5757 234.67 74.5737C236.967 74.5184 239.264 74.4641 241.561 74.4088C241.822 74.4206 241.949 74.4399 241.89 74.4632C241.856 74.4772 241.777 74.4967 241.697 74.4987C240.815 74.5191 239.94 74.5395 239.065 74.5608Z" fill="#FFE492"/>
<path d="M659.873 78.8405C659.525 78.852 659.085 78.8682 658.723 78.8147C658.549 78.7889 658.361 78.7808 658.134 78.7866C657.807 78.7962 657.473 78.804 657.139 78.8099C657.053 78.8109 656.939 78.8008 656.852 78.7925C656.664 78.776 656.504 78.7483 656.303 78.7411C656.102 78.7339 655.862 78.7546 655.655 78.7501C655.381 78.7439 655.267 78.719 655.34 78.6957C655.38 78.6827 655.46 78.664 655.547 78.6611C656.782 78.6255 656.788 78.6255 657.136 78.6586C657.404 78.6843 657.652 78.7128 658.032 78.6966C658.353 78.6833 658.693 78.6801 659.021 78.6715C659.475 78.6598 659.475 78.6608 660.211 78.7185C660.398 78.7332 660.599 78.732 660.839 78.7234C661.046 78.7167 661.247 78.7313 661.414 78.7562C661.308 78.7879 661.154 78.8085 660.947 78.8143C660.614 78.8239 660.287 78.8308 659.873 78.8405Z" fill="#FFE492"/>
<path d="M647.571 78.5725C648.412 78.5521 649.26 78.5345 650.101 78.5114C650.448 78.5018 650.723 78.5117 650.964 78.543C651.225 78.577 651.519 78.5739 651.839 78.5671C652.04 78.5632 652.234 78.5778 652.368 78.6037C652.422 78.6138 652.408 78.6324 652.429 78.6472C651.694 78.6647 650.953 78.683 650.212 78.6986C650.125 78.7006 650.018 78.6914 649.938 78.6841C649.757 78.6685 649.603 78.6408 649.409 78.6355C648.995 78.6229 648.581 78.6484 648.16 78.6535C647.96 78.6555 647.766 78.6418 647.632 78.6169C647.578 78.6049 647.591 78.5873 647.571 78.5725Z" fill="#FFE492"/>
<path d="M343.189 71.1218C344.064 71.1005 344.938 71.0801 345.813 71.0588C346.074 71.0715 346.194 71.09 346.141 71.1132C346.108 71.1272 346.029 71.1468 345.948 71.1487C344.199 71.1923 342.45 71.234 340.707 71.2757C340.446 71.263 340.325 71.2446 340.378 71.2213C340.411 71.2074 340.491 71.1878 340.571 71.1858C341.439 71.1636 342.314 71.1432 343.189 71.1218Z" fill="#FFE492"/>
<path d="M208.384 76.4185C207.99 76.4208 207.577 76.4554 207.135 76.43C207.049 76.4254 206.928 76.4108 206.934 76.4025C206.948 76.3886 207.027 76.371 207.114 76.3653C207.494 76.3419 207.969 76.3386 208.161 76.2737C208.254 76.2404 208.427 76.2291 208.661 76.2224C208.908 76.2148 209.082 76.2174 209.276 76.2366C209.53 76.2612 209.745 76.3072 210.145 76.2828C210.165 76.2975 210.212 76.3141 210.193 76.328C210.173 76.3419 210.086 76.3549 210.006 76.3651C209.933 76.3744 209.833 76.3828 209.74 76.3857C209.299 76.3972 208.858 76.4069 208.384 76.4185Z" fill="#FFE492"/>
<path d="M555.894 75.7299C556.221 75.7221 556.562 75.7181 556.882 75.7048C557.136 75.6943 557.296 75.7006 557.497 75.7227C557.839 75.7612 557.859 75.7575 558.694 75.7622C558.787 75.763 558.901 75.7768 558.955 75.7888C558.988 75.7952 558.942 75.8129 558.902 75.8222C558.842 75.8343 558.756 75.8502 558.675 75.8502C558.148 75.8536 557.615 75.9088 557.099 75.8463C556.838 75.8151 556.55 75.8006 556.196 75.8148C555.983 75.8234 555.756 75.8273 555.535 75.8313C555.322 75.8352 555.101 75.8252 554.967 75.7976C554.772 75.757 554.886 75.7411 555.233 75.7435C555.453 75.7452 555.674 75.7347 555.894 75.7299Z" fill="#FFE492"/>
<path d="M677.087 81.8812C677.508 81.8715 677.928 81.86 678.356 81.8522C678.443 81.8502 678.55 81.8603 678.63 81.8666C678.951 81.894 678.905 81.9412 678.919 81.9827C678.927 82.0261 678.186 82.062 677.872 82.0327C677.524 81.9998 677.209 81.9623 676.729 81.9831C676.542 81.9907 676.321 81.9743 676.2 81.9476C676.019 81.909 676.119 81.8932 676.46 81.8957C676.66 81.8973 676.874 81.8869 677.087 81.8812Z" fill="#FFE492"/>
<path d="M464.77 69.6962C465.204 69.6856 465.638 69.6694 466.072 69.668C466.326 69.6668 466.453 69.6973 466.394 69.7195C466.361 69.7335 466.281 69.753 466.201 69.7549C465.333 69.778 464.465 69.7975 463.597 69.8187C463.343 69.806 463.215 69.7867 463.275 69.7644C463.308 69.7505 463.388 69.7319 463.468 69.729C463.902 69.7156 464.336 69.7068 464.77 69.6962Z" fill="#FFE492"/>
<path d="M668.716 78.9067C669.137 78.8971 669.564 78.8827 669.985 78.8777C670.205 78.8756 670.379 78.8967 670.407 78.9207C670.42 78.9318 670.314 78.9514 670.227 78.9561C669.626 78.9882 668.978 78.9926 668.351 79.0089C668.15 79.0138 667.936 78.9992 667.816 78.9734C667.634 78.9338 667.734 78.9189 668.075 78.9213C668.289 78.922 668.502 78.9116 668.716 78.9067Z" fill="#FFE492"/>
<path d="M566.934 75.8382C567.148 75.8333 567.368 75.8211 567.575 75.8246C567.795 75.829 567.936 75.8556 568.004 75.8822C568.078 75.9126 568.072 75.9412 568.005 75.9671C567.899 76.0114 567.792 76.0097 567.545 75.9805C567.163 75.9347 567.136 75.9403 566.382 75.9429C566.295 75.943 566.188 75.9293 566.121 75.9174C566.02 75.899 566.073 75.8704 566.307 75.8536C566.48 75.8414 566.721 75.843 566.934 75.8382Z" fill="#FFE492"/>
<path d="M653.055 78.6277C653.369 78.6199 653.683 78.6076 653.996 78.6073C654.217 78.6061 654.391 78.6272 654.412 78.6503C654.418 78.6614 654.319 78.68 654.239 78.6856C653.858 78.711 653.431 78.7133 653.017 78.722C652.823 78.7259 652.609 78.7113 652.488 78.6856C652.307 78.6469 652.414 78.6292 652.741 78.6344C652.842 78.6362 652.948 78.6305 653.055 78.6277Z" fill="#FFE492"/>
<path d="M603.61 77.5736C603.143 77.5851 602.702 77.5717 602.735 77.5477C602.781 77.5162 602.974 77.4956 603.174 77.4899C603.495 77.4803 603.815 77.4725 604.142 77.4667C604.349 77.4628 604.537 77.4764 604.704 77.5003C604.605 77.53 604.451 77.5514 604.251 77.5581C604.044 77.5648 603.824 77.5687 603.61 77.5736Z" fill="#FFE492"/>
<path d="M600.543 77.4602C600.857 77.4524 601.17 77.4401 601.484 77.4398C601.705 77.4386 601.879 77.4597 601.899 77.4828C601.906 77.4939 601.806 77.5125 601.726 77.5181C601.346 77.5435 600.919 77.5458 600.505 77.5545C600.311 77.5584 600.097 77.5438 599.976 77.5181C599.795 77.4794 599.902 77.4618 600.229 77.467C600.329 77.4687 600.436 77.4631 600.543 77.4602Z" fill="#FFE492"/>
<path d="M563.145 75.8366C563.458 75.8289 563.772 75.8165 564.086 75.8153C564.306 75.8141 564.48 75.8352 564.501 75.8583C564.508 75.8694 564.408 75.8871 564.328 75.8936C563.948 75.919 563.52 75.9213 563.106 75.93C562.913 75.9339 562.699 75.9193 562.578 75.8936C562.397 75.8549 562.503 75.8373 562.831 75.8425C562.931 75.8442 563.038 75.8386 563.145 75.8366Z" fill="#FFE492"/>
<path d="M561.388 75.7841C561.722 75.7764 561.828 75.7716 561.935 75.7715C562.136 75.7713 562.343 75.7822 562.464 75.8089C562.645 75.8475 562.538 75.8587 562.211 75.8609C561.79 75.8632 561.376 75.883 560.956 75.8872C560.735 75.8893 560.561 75.8672 560.547 75.8441C560.54 75.8331 560.64 75.8135 560.72 75.8098C561.001 75.7956 561.308 75.787 561.388 75.7841Z" fill="#FFE492"/>
<path d="M597.72 70.3335C597.506 70.3383 597.28 70.3515 597.079 70.3471C596.812 70.3409 596.704 70.3161 596.771 70.2929C596.811 70.2799 596.884 70.2614 596.964 70.2585C597.391 70.2452 597.825 70.2364 598.252 70.2267C598.506 70.2403 598.62 70.2596 598.554 70.2828C598.514 70.2957 598.441 70.3133 598.361 70.3171C598.154 70.3266 597.934 70.3287 597.72 70.3335Z" fill="#FFE492"/>
<path d="M338.402 71.2375C338.609 71.2364 338.796 71.2482 338.957 71.2711C338.857 71.3008 338.711 71.3203 338.511 71.3288C338.411 71.3326 338.297 71.3355 338.19 71.3365C337.983 71.3386 337.796 71.3258 337.635 71.3029C337.735 71.2733 337.888 71.2538 338.081 71.2452C338.182 71.2415 338.295 71.2404 338.402 71.2375Z" fill="#FFE492"/>
<path d="M666.429 78.9057C666.421 78.8789 666.828 78.848 667.196 78.8486C667.389 78.8493 667.59 78.862 667.704 78.8868C667.878 78.9245 667.778 78.9394 667.451 78.9369C667.251 78.9353 667.037 78.9512 666.837 78.9487C666.61 78.948 666.476 78.9278 666.429 78.9057Z" fill="#FFE492"/>
<path d="M568.874 75.9468C568.867 75.9367 568.834 75.9247 568.853 75.9155C568.979 75.8646 569.747 75.8482 569.948 75.8922C569.982 75.9005 569.995 75.9143 569.969 75.9226C569.929 75.9356 569.856 75.9523 569.776 75.956C569.569 75.9655 569.355 75.9703 569.142 75.9714C569.048 75.9715 568.961 75.9559 568.874 75.9468Z" fill="#FFE492"/>
<path d="M210.759 76.2686C209.971 76.2887 209.958 76.2869 210.097 76.2406C210.223 76.199 210.456 76.1738 210.797 76.1735C210.897 76.1734 211.004 76.1714 211.091 76.175C211.184 76.1796 211.318 76.1886 211.338 76.1997C211.379 76.2209 211.266 76.244 211.066 76.2599C210.979 76.2674 210.865 76.2657 210.759 76.2686Z" fill="#FFE492"/>
<path d="M348.268 71.094C348.035 71.1099 347.834 71.1045 347.687 71.0752C347.539 71.0458 347.772 71.0106 348.179 71.0018C348.286 70.9999 348.4 70.9924 348.5 70.996C348.6 70.9986 348.701 71.0096 348.761 71.0206C348.868 71.0389 348.802 71.0639 348.589 71.0853C348.502 71.0937 348.375 71.092 348.268 71.094Z" fill="#FFE492"/>
<path d="M665.039 78.8387C665.098 78.8266 665.158 78.8146 665.224 78.8035C665.471 78.8189 665.578 78.8372 665.512 78.8584C665.472 78.8713 665.392 78.8825 665.333 78.8945C665.086 78.8791 664.986 78.8599 665.039 78.8387Z" fill="#FFE492"/>
<path d="M221.497 86.7009C221.497 86.6898 221.59 86.6722 221.663 86.6685C221.803 86.6619 221.976 86.6746 222.096 86.7003C222.264 86.7369 222.164 86.7564 221.858 86.7465C221.644 86.7394 221.497 86.7211 221.497 86.7009Z" fill="#FFE492"/>
<path d="M571.582 75.0886C571.668 75.0968 571.755 75.105 571.835 75.1141C571.723 75.1483 571.583 75.1632 571.436 75.1542C571.343 75.1487 571.263 75.1377 571.176 75.1295C571.289 75.0953 571.422 75.0823 571.582 75.0886Z" fill="#FFE492"/>
<path d="M569.266 75.0501C569.399 75.0361 569.559 75.0434 569.746 75.0699C569.686 75.0819 569.633 75.0958 569.56 75.1051C569.434 75.12 569.267 75.1128 569.087 75.0853C569.14 75.0742 569.199 75.0621 569.266 75.0501Z" fill="#FFE492"/>
<path d="M567.495 75.0931C567.582 75.1013 567.669 75.1095 567.749 75.1186C567.637 75.1528 567.504 75.1677 567.35 75.1586C567.257 75.1532 567.177 75.1422 567.09 75.134C567.203 75.0998 567.335 75.0859 567.495 75.0931Z" fill="#FFE492"/>
<path d="M566.193 75.0468C566.293 75.0651 566.24 75.0872 566.047 75.1122C565.961 75.1041 565.861 75.0977 565.794 75.0868C565.687 75.0694 565.74 75.0463 565.939 75.0213C566.019 75.0304 566.106 75.0386 566.193 75.0468Z" fill="#FFE492"/>
</svg>
